<?xml version="1.0" encoding="UTF-8"?>
<svg version="1.1" xmlns="http://www.w3.org/2000/svg" width="748" height="748">
<path d="M0 0 C1.3133567 0.50470327 2.62187999 1.02212946 3.92578125 1.55078125 C4.62348633 1.8226123 5.32119141 2.09444336 6.04003906 2.37451172 C11.17579054 4.38952369 16.25391837 6.5399047 21.33203125 8.6953125 C26.21912265 10.6593452 31.21994477 12.27058226 36.23828125 13.86328125 C36.23828125 14.52328125 36.23828125 15.18328125 36.23828125 15.86328125 C37.08261719 15.97671875 37.92695313 16.09015625 38.796875 16.20703125 C42.49420309 16.9120836 45.77760251 18.04448529 49.30078125 19.36328125 C53.27502782 20.84769039 57.04822731 22.16625904 61.23828125 22.86328125 C61.23828125 23.52328125 61.23828125 24.18328125 61.23828125 24.86328125 C61.81175293 24.99758545 62.38522461 25.13188965 62.97607422 25.27026367 C65.18979663 25.85057144 67.28730415 26.5594042 69.43359375 27.3515625 C70.22749512 27.64401855 71.02139648 27.93647461 71.83935547 28.23779297 C72.67225098 28.5473291 73.50514648 28.85686523 74.36328125 29.17578125 C75.2155127 29.49047363 76.06774414 29.80516602 76.94580078 30.12939453 C82.0825489 32.03447214 87.18627172 33.99619234 92.23046875 36.13671875 C94.2980608 36.94665738 94.2980608 36.94665738 96.80859375 37.33984375 C99.23828125 37.86328125 99.23828125 37.86328125 102.23828125 39.86328125 C103.68841202 40.48842413 105.15562986 41.07458827 106.6328125 41.6328125 C107.50010986 41.96216797 108.36740723 42.29152344 109.26098633 42.63085938 C110.18161865 42.97568359 111.10225098 43.32050781 112.05078125 43.67578125 C112.98752686 44.02962891 113.92427246 44.38347656 114.8894043 44.74804688 C122.3084864 47.54045484 129.75517846 50.24733944 137.23828125 52.86328125 C137.23828125 53.52328125 137.23828125 54.18328125 137.23828125 54.86328125 C138.28242187 55.04890625 138.28242187 55.04890625 139.34765625 55.23828125 C142.48320203 55.91623709 145.44687362 56.8444846 148.48828125 57.86328125 C149.5453125 58.21390625 150.60234375 58.56453125 151.69140625 58.92578125 C154.23828125 59.86328125 154.23828125 59.86328125 155.23828125 60.86328125 C155.39846007 65.02793051 155.22076321 68.81054317 154.23828125 72.86328125 C153.57828125 72.86328125 152.91828125 72.86328125 152.23828125 72.86328125 C152.12484375 73.55421875 152.01140625 74.24515625 151.89453125 74.95703125 C150.89150785 79.39899202 149.08921846 83.49001889 147.39453125 87.70703125 C146.39047901 90.4478225 145.70984812 92.99101029 145.23828125 95.86328125 C144.57828125 95.86328125 143.91828125 95.86328125 143.23828125 95.86328125 C143.23828125 97.84328125 143.23828125 99.82328125 143.23828125 101.86328125 C142.57828125 101.86328125 141.91828125 101.86328125 141.23828125 101.86328125 C141.23828125 102.85328125 141.23828125 103.84328125 141.23828125 104.86328125 C140.57828125 104.86328125 139.91828125 104.86328125 139.23828125 104.86328125 C139.15578125 105.93578125 139.07328125 107.00828125 138.98828125 108.11328125 C138.28553991 113.94498555 136.21059167 119.35915914 134.23828125 124.86328125 C133.57828125 124.86328125 132.91828125 124.86328125 132.23828125 124.86328125 C132.13515625 125.50265625 132.03203125 126.14203125 131.92578125 126.80078125 C130.65967656 132.44070215 128.77777253 137.80146214 126.36328125 143.05078125 C124.08515963 148.02280335 122.33533476 153.15082798 120.52734375 158.30859375 C118.97160667 162.59865662 117.21534027 166.78222556 115.4296875 170.98046875 C113.87138008 174.75106178 112.50347101 178.57856765 111.13671875 182.421875 C110.41244567 184.39000837 109.59002251 186.32186342 108.73828125 188.23828125 C107.37328906 191.53701238 106.36172611 194.75311227 105.36328125 198.17578125 C103.86410578 203.18063321 101.99026117 207.56588886 99.54296875 212.1640625 C96.95154523 217.52536087 95.14579499 223.23002791 93.23828125 228.86328125 C92.57828125 228.86328125 91.91828125 228.86328125 91.23828125 228.86328125 C91.27308594 229.59675781 91.30789063 230.33023438 91.34375 231.0859375 C91.23442276 233.96488814 90.69901532 235.68208142 89.55078125 238.30078125 C87.71405949 242.65229767 86.06132905 247.03667451 84.48828125 251.48828125 C84.0603125 252.69742188 83.63234375 253.9065625 83.19140625 255.15234375 C82.876875 256.04695313 82.56234375 256.9415625 82.23828125 257.86328125 C81.57828125 257.86328125 80.91828125 257.86328125 80.23828125 257.86328125 C80.17640625 259.12140625 80.11453125 260.37953125 80.05078125 261.67578125 C79.50734702 266.69270306 77.70724151 270.62888176 75.515625 275.1328125 C73.72922034 278.95145732 72.49098319 282.8414487 71.23828125 286.86328125 C70.57828125 286.86328125 69.91828125 286.86328125 69.23828125 286.86328125 C69.05265625 288.78140625 69.05265625 288.78140625 68.86328125 290.73828125 C68.48828125 294.61328125 68.48828125 294.61328125 66.23828125 296.86328125 C65.46789124 299.05073901 64.76766822 301.26336554 64.11328125 303.48828125 C63.58347656 305.27105469 63.58347656 305.27105469 63.04296875 307.08984375 C62.77742187 308.00507813 62.511875 308.9203125 62.23828125 309.86328125 C61.57828125 309.86328125 60.91828125 309.86328125 60.23828125 309.86328125 C60.27953125 310.57871094 60.32078125 311.29414063 60.36328125 312.03125 C60.22467812 315.17147711 59.46724616 317.29539473 58.23828125 320.17578125 C57.86703125 321.05878906 57.49578125 321.94179688 57.11328125 322.8515625 C56.82453125 323.51542969 56.53578125 324.17929687 56.23828125 324.86328125 C55.57828125 324.86328125 54.91828125 324.86328125 54.23828125 324.86328125 C53.90828125 327.17328125 53.57828125 329.48328125 53.23828125 331.86328125 C52.57828125 331.86328125 51.91828125 331.86328125 51.23828125 331.86328125 C50.97660156 332.45238281 50.71492187 333.04148437 50.4453125 333.6484375 C49.17405375 335.98113559 47.83597594 337.46682493 45.92578125 339.30078125 C45.35214844 339.85636719 44.77851563 340.41195313 44.1875 340.984375 C43.54425781 341.60441406 42.90101563 342.22445313 42.23828125 342.86328125 C38.02781565 346.93704342 34.36471719 351.26887793 30.72460938 355.84179688 C29.60491105 357.21791466 28.42590309 358.54533631 27.23828125 359.86328125 C26.57828125 359.86328125 25.91828125 359.86328125 25.23828125 359.86328125 C25.23828125 360.85328125 25.23828125 361.84328125 25.23828125 362.86328125 C23.6250725 364.63260698 21.98358093 366.22980855 20.23828125 367.86328125 C18.64922607 369.41996179 17.06625777 370.98287156 15.48828125 372.55078125 C14.7096875 373.31777344 13.93109375 374.08476562 13.12890625 374.875 C11.1859751 376.72435115 11.1859751 376.72435115 10.23828125 378.86328125 C9.57828125 378.86328125 8.91828125 378.86328125 8.23828125 378.86328125 C7.90828125 379.85328125 7.57828125 380.84328125 7.23828125 381.86328125 C6.57828125 381.86328125 5.91828125 381.86328125 5.23828125 381.86328125 C4.94953125 382.46140625 4.66078125 383.05953125 4.36328125 383.67578125 C3.23828125 385.86328125 3.23828125 385.86328125 1.23828125 388.86328125 C0.57828125 388.86328125 -0.08171875 388.86328125 -0.76171875 388.86328125 C-0.76171875 389.52328125 -0.76171875 390.18328125 -0.76171875 390.86328125 C-1.89224833 392.02806931 -3.03069879 393.18598735 -4.203125 394.30859375 C-5.98512906 396.08613163 -7.61816325 397.95718844 -9.26171875 399.86328125 C-11.31642141 402.24099393 -13.38878392 404.54232179 -15.63671875 406.73828125 C-17.80124722 408.67881505 -17.80124722 408.67881505 -18.76171875 410.86328125 C-19.42171875 410.86328125 -20.08171875 410.86328125 -20.76171875 410.86328125 C-20.76171875 411.52328125 -20.76171875 412.18328125 -20.76171875 412.86328125 C-22.40540015 414.55262047 -24.07600635 416.21588049 -25.76171875 417.86328125 C-26.48359375 418.79140625 -27.20546875 419.71953125 -27.94921875 420.67578125 C-28.54734375 421.39765625 -29.14546875 422.11953125 -29.76171875 422.86328125 C-30.42171875 422.86328125 -31.08171875 422.86328125 -31.76171875 422.86328125 C-32.02082031 423.43949219 -32.27992188 424.01570313 -32.546875 424.609375 C-33.85771257 427.04137912 -35.35769709 428.87040546 -37.19921875 430.92578125 C-37.79605469 431.59738281 -38.39289063 432.26898438 -39.0078125 432.9609375 C-41.36561357 435.51828521 -43.83455422 437.93434025 -46.32421875 440.36328125 C-48.85842439 442.80934329 -48.85842439 442.80934329 -50.76171875 445.86328125 C-51.42171875 445.86328125 -52.08171875 445.86328125 -52.76171875 445.86328125 C-53.08849609 446.66765625 -53.08849609 446.66765625 -53.421875 447.48828125 C-55.23232084 450.69746804 -57.6792529 453.20861058 -60.19921875 455.86328125 C-63.22698689 459.0780469 -66.20155896 462.25302202 -68.76171875 465.86328125 C-72.79422962 465.31371782 -75.23165866 464.15040726 -78.44921875 461.67578125 C-79.21621094 461.10472656 -79.98320312 460.53367187 -80.7734375 459.9453125 C-84.93923935 455.58308778 -85.00948393 450.35388327 -84.99118042 444.57209778 C-84.99162798 443.86011079 -84.99207554 443.1481238 -84.99253666 442.41456145 C-84.99149044 440.04032749 -84.97600434 437.66641622 -84.96044922 435.29223633 C-84.95656886 433.58508466 -84.95352322 431.87793093 -84.95124817 430.17077637 C-84.94217822 425.54030278 -84.91996546 420.90998186 -84.8943038 416.27957368 C-84.87372566 412.40818093 -84.85876597 408.5367737 -84.84354413 404.66535681 C-84.80719373 395.5257809 -84.75935862 386.38631162 -84.70507812 377.24682617 C-84.64944408 367.83568963 -84.6159547 358.42465253 -84.59297073 349.01338464 C-84.57225496 340.92049781 -84.53624829 332.82777177 -84.48844635 324.73499984 C-84.46017185 319.90737548 -84.43790667 315.07991306 -84.43096542 310.2522068 C-84.4238826 305.70723233 -84.39765278 301.16275359 -84.35713768 296.61795807 C-84.34549306 294.9568357 -84.34047193 293.29565056 -84.34283257 291.63448906 C-84.35166791 282.33253659 -83.67713409 274.46926827 -79.76171875 265.86328125 C-79.24149554 264.48330348 -78.73021743 263.09986195 -78.234375 261.7109375 C-77.76538949 260.44882191 -77.29533971 259.18710128 -76.82421875 257.92578125 C-76.57260986 257.25192383 -76.32100098 256.57806641 -76.06176758 255.88378906 C-74.08711206 250.63707783 -71.96369878 245.46398578 -69.7421875 240.31640625 C-68.88329684 238.16746866 -68.25217678 236.12044293 -67.76171875 233.86328125 C-67.10171875 233.86328125 -66.44171875 233.86328125 -65.76171875 233.86328125 C-65.62217773 233.28384766 -65.48263672 232.70441406 -65.33886719 232.10742188 C-64.40341587 228.47008326 -63.19420953 224.92663339 -62.01171875 221.36328125 C-61.7472998 220.56462646 -61.48288086 219.76597168 -61.21044922 218.94311523 C-59.28362315 213.21049057 -57.11459202 207.67112054 -54.64453125 202.1484375 C-53.58153488 199.8051685 -53.58153488 199.8051685 -53.76171875 196.86328125 C-53.10171875 196.86328125 -52.44171875 196.86328125 -51.76171875 196.86328125 C-51.65601563 196.21101562 -51.5503125 195.55875 -51.44140625 194.88671875 C-50.56003366 190.96613035 -49.24108057 187.26728107 -47.88671875 183.48828125 C-47.63019531 182.75867188 -47.37367188 182.0290625 -47.109375 181.27734375 C-45.49099137 176.72309835 -43.70262203 172.28942046 -41.76171875 167.86328125 C-41.08895159 166.19906775 -40.4196504 164.53341543 -39.76171875 162.86328125 C-39.10171875 162.86328125 -38.44171875 162.86328125 -37.76171875 162.86328125 C-37.63796875 161.64640625 -37.51421875 160.42953125 -37.38671875 159.17578125 C-36.97280569 155.79849066 -36.21598424 152.9657143 -34.76171875 149.86328125 C-34.10171875 149.86328125 -33.44171875 149.86328125 -32.76171875 149.86328125 C-32.65859375 148.68765625 -32.55546875 147.51203125 -32.44921875 146.30078125 C-31.93765372 142.10446523 -30.5071759 138.71783246 -28.76171875 134.86328125 C-28.07031353 132.08439512 -28.07031353 132.08439512 -27.76171875 129.86328125 C-27.10171875 129.86328125 -26.44171875 129.86328125 -25.76171875 129.86328125 C-25.53484375 128.66703125 -25.30796875 127.47078125 -25.07421875 126.23828125 C-22.93144181 116.65614494 -19.32734999 107.66194122 -14.765625 98.99609375 C-13.5104626 96.32948415 -12.99305668 93.79356174 -12.76171875 90.86328125 C-12.10171875 90.86328125 -11.44171875 90.86328125 -10.76171875 90.86328125 C-10.76171875 89.54328125 -10.76171875 88.22328125 -10.76171875 86.86328125 C-10.10171875 86.86328125 -9.44171875 86.86328125 -8.76171875 86.86328125 C-8.5915625 85.84041016 -8.5915625 85.84041016 -8.41796875 84.796875 C-7.37844994 80.14997842 -5.58484241 75.78900986 -3.91796875 71.3359375 C-2.67560733 67.94720606 -2.67560733 67.94720606 -2.29296875 64.609375 C-1.69302738 61.50820747 -0.98286454 60.94912882 1.23828125 58.86328125 C2.20255766 56.40569898 2.20255766 56.40569898 2.86328125 53.73828125 C4.15494792 48.94661458 4.15494792 48.94661458 5.23828125 47.86328125 C12.27249719 47.643462 17.42967038 50.14192535 23.23828125 53.86328125 C22.57482281 59.1205595 20.98247821 63.79187193 19.17578125 68.73828125 C18.89412109 69.52203125 18.61246094 70.30578125 18.32226562 71.11328125 C17.63214343 73.03158701 16.93583809 74.94766644 16.23828125 76.86328125 C15.57828125 76.86328125 14.91828125 76.86328125 14.23828125 76.86328125 C13.68105627 79.56980258 13.184095 82.25032589 12.80078125 84.98828125 C12.23828125 87.86328125 12.23828125 87.86328125 10.23828125 90.86328125 C9.57828125 90.86328125 8.91828125 90.86328125 8.23828125 90.86328125 C8.28726563 91.56839844 8.33625 92.27351563 8.38671875 93 C8.21185463 96.37303681 7.25516706 98.60639144 5.86328125 101.67578125 C3.80508551 106.39272277 2.30182175 110.83563527 1.23828125 115.86328125 C0.57828125 115.86328125 -0.08171875 115.86328125 -0.76171875 115.86328125 C-0.89602295 116.42700439 -1.03032715 116.99072754 -1.16870117 117.5715332 C-2.26157691 121.79500974 -3.70207602 125.91134019 -5.07421875 130.05078125 C-5.51797852 131.41299805 -5.51797852 131.41299805 -5.97070312 132.80273438 C-7.68753731 137.98290144 -9.61569079 142.95822263 -11.8894043 147.91870117 C-12.91798137 150.21162487 -13.7515507 152.53125188 -14.51171875 154.92578125 C-14.7540625 155.67988281 -14.99640625 156.43398437 -15.24609375 157.2109375 C-15.41625 157.75621094 -15.58640625 158.30148438 -15.76171875 158.86328125 C-16.42171875 158.86328125 -17.08171875 158.86328125 -17.76171875 158.86328125 C-17.91640625 159.85328125 -17.91640625 159.85328125 -18.07421875 160.86328125 C-19.15401856 165.57513496 -20.94592572 170.00508601 -22.88671875 174.42578125 C-23.9156084 177.00752348 -23.9156084 177.00752348 -24.19921875 180.48828125 C-24.76171875 183.86328125 -24.76171875 183.86328125 -26.171875 185.18359375 C-28.42384171 187.56282148 -28.88638599 189.97667221 -29.76171875 193.11328125 C-31.10845543 197.89419648 -32.77511024 202.31187221 -34.76171875 206.86328125 C-35.83590583 209.62214062 -36.8621655 212.39816075 -37.88671875 215.17578125 C-40.63542117 222.61068609 -40.63542117 222.61068609 -41.76171875 224.86328125 C-42.42171875 224.86328125 -43.08171875 224.86328125 -43.76171875 224.86328125 C-43.86484375 226.05953125 -43.96796875 227.25578125 -44.07421875 228.48828125 C-44.55670654 232.45307226 -45.87699028 235.32941538 -47.76171875 238.86328125 C-48.46079289 241.5990071 -48.46079289 241.5990071 -48.76171875 243.86328125 C-49.42171875 243.86328125 -50.08171875 243.86328125 -50.76171875 243.86328125 C-50.87 244.51167969 -50.97828125 245.16007813 -51.08984375 245.828125 C-51.96717337 249.79141057 -53.22411002 253.57921274 -54.51171875 257.42578125 C-54.75148438 258.16119141 -54.99125 258.89660156 -55.23828125 259.65429688 C-56.36078769 263.02470924 -57.50258782 266.30752509 -59.00570583 269.53125095 C-62.4753885 277.01032619 -63.48069572 283.1550629 -63.39282227 291.34545898 C-63.39997757 292.52911545 -63.40713287 293.71277191 -63.414505 294.93229675 C-63.43127259 298.80422772 -63.412066 302.6749819 -63.390625 306.546875 C-63.38908972 309.25302298 -63.39386162 311.95915394 -63.39793396 314.66529846 C-63.40243421 320.31630796 -63.38670397 325.96698416 -63.35864258 331.61791992 C-63.3264908 338.14273116 -63.32665486 344.66694536 -63.34385735 351.19179958 C-63.35973001 357.49125975 -63.35299128 363.79050184 -63.33592033 370.08995247 C-63.32906448 372.76260731 -63.33122141 375.4348022 -63.33746529 378.10751152 C-63.3429075 381.83434141 -63.32257598 385.56015153 -63.29516602 389.28686523 C-63.30169189 390.39082642 -63.30821777 391.4947876 -63.31494141 392.63220215 C-63.26329858 398.6247174 -63.26329858 398.6247174 -60.84751892 404.00624084 C-56.21620772 408.12961381 -52.39112543 408.27995111 -46.328125 408.19921875 C-43.56460077 408.05838245 -43.56460077 408.05838245 -41.19921875 405.86328125 C-40.72484375 405.20328125 -40.25046875 404.54328125 -39.76171875 403.86328125 C-39.10171875 403.86328125 -38.44171875 403.86328125 -37.76171875 403.86328125 C-37.35953125 402.99703125 -37.35953125 402.99703125 -36.94921875 402.11328125 C-35.73242686 399.80778082 -34.45837996 397.84271933 -32.76171875 395.86328125 C-32.10171875 395.86328125 -31.44171875 395.86328125 -30.76171875 395.86328125 C-30.49875 395.28191406 -30.23578125 394.70054687 -29.96484375 394.1015625 C-28.70257081 391.75324303 -27.29723314 390.0253028 -25.51171875 388.05078125 C-22.59420883 384.80436625 -19.78025957 381.4969971 -17.0234375 378.11328125 C-15.76171875 376.86328125 -15.76171875 376.86328125 -13.76171875 376.86328125 C-13.50003906 376.28449219 -13.23835937 375.70570313 -12.96875 375.109375 C-9.8696149 369.34237603 -4.57796732 364.26670851 0.23828125 359.86328125 C0.89828125 359.86328125 1.55828125 359.86328125 2.23828125 359.86328125 C2.56828125 358.54328125 2.89828125 357.22328125 3.23828125 355.86328125 C3.89828125 355.86328125 4.55828125 355.86328125 5.23828125 355.86328125 C5.52703125 355.26515625 5.81578125 354.66703125 6.11328125 354.05078125 C7.23828125 351.86328125 7.23828125 351.86328125 9.23828125 348.86328125 C9.89828125 348.86328125 10.55828125 348.86328125 11.23828125 348.86328125 C11.23828125 348.20328125 11.23828125 347.54328125 11.23828125 346.86328125 C13.11328125 344.73828125 13.11328125 344.73828125 15.23828125 342.86328125 C15.89828125 342.86328125 16.55828125 342.86328125 17.23828125 342.86328125 C17.23828125 342.20328125 17.23828125 341.54328125 17.23828125 340.86328125 C17.89828125 340.86328125 18.55828125 340.86328125 19.23828125 340.86328125 C19.64046875 339.99703125 19.64046875 339.99703125 20.05078125 339.11328125 C21.26757314 336.80778082 22.54162004 334.84271933 24.23828125 332.86328125 C24.89828125 332.86328125 25.55828125 332.86328125 26.23828125 332.86328125 C26.50898438 332.26902344 26.7796875 331.67476563 27.05859375 331.0625 C28.22027977 328.89684031 29.42665999 327.44542273 31.11328125 325.67578125 C34.54715916 321.78238196 36.2971874 317.62543149 38.23828125 312.86328125 C39.2241723 310.85628876 40.21792621 308.85297358 41.23828125 306.86328125 C41.89828125 306.86328125 42.55828125 306.86328125 43.23828125 306.86328125 C43.30015625 305.60515625 43.36203125 304.34703125 43.42578125 303.05078125 C43.96572623 297.95756887 45.82101467 293.89864677 48.08203125 289.34375 C49.09894395 287.16219741 49.75665975 285.21118609 50.23828125 282.86328125 C50.89828125 282.86328125 51.55828125 282.86328125 52.23828125 282.86328125 C52.30015625 281.95578125 52.36203125 281.04828125 52.42578125 280.11328125 C53.08544242 275.38092939 55.08559673 271.26839812 56.97265625 266.9140625 C58.74193392 262.6492296 59.99478247 258.30334469 61.23828125 253.86328125 C61.79747058 251.98729123 62.35990162 250.11226404 62.92578125 248.23828125 C63.17714844 247.40039062 63.42851562 246.5625 63.6875 245.69921875 C63.86925781 245.09335937 64.05101562 244.4875 64.23828125 243.86328125 C64.89828125 243.86328125 65.55828125 243.86328125 66.23828125 243.86328125 C66.34398437 243.1878125 66.4496875 242.51234375 66.55859375 241.81640625 C67.37939365 238.25017219 68.71038637 234.97929312 70.11328125 231.61328125 C72.37479796 226.08655617 74.43887041 220.56141556 76.23828125 214.86328125 C76.89828125 214.86328125 77.55828125 214.86328125 78.23828125 214.86328125 C78.23828125 213.87328125 78.23828125 212.88328125 78.23828125 211.86328125 C78.89828125 211.86328125 79.55828125 211.86328125 80.23828125 211.86328125 C80.32078125 210.79078125 80.40328125 209.71828125 80.48828125 208.61328125 C81.19102259 202.78157695 83.26597083 197.36740336 85.23828125 191.86328125 C85.89828125 191.86328125 86.55828125 191.86328125 87.23828125 191.86328125 C87.20476562 191.12722656 87.17125 190.39117187 87.13671875 189.6328125 C87.24075904 186.79571375 87.73619027 185.13026182 88.86328125 182.55078125 C90.77078403 178.02553528 92.53183333 173.46687222 94.23828125 168.86328125 C96.24551273 163.47196224 98.3034846 158.10850003 100.4765625 152.78125 C101.11929623 151.16287943 101.68762437 149.51525188 102.23828125 147.86328125 C102.89828125 147.86328125 103.55828125 147.86328125 104.23828125 147.86328125 C104.34527344 147.21875 104.45226562 146.57421875 104.5625 145.91015625 C105.45631999 141.88021641 106.73881481 138.02415999 108.05078125 134.11328125 C108.31850342 133.30995361 108.58622559 132.50662598 108.86206055 131.67895508 C110.49740222 126.84456519 112.30310643 122.18073482 114.4921875 117.56640625 C115.44880412 115.38271594 115.93383205 113.22276255 116.23828125 110.86328125 C116.89828125 110.86328125 117.55828125 110.86328125 118.23828125 110.86328125 C118.39683594 109.37828125 118.39683594 109.37828125 118.55859375 107.86328125 C119.16699802 103.61939464 120.55188322 99.8391338 122.11328125 95.86328125 C122.49806641 94.85394531 122.49806641 94.85394531 122.890625 93.82421875 C124.56851383 89.45664884 126.37241679 85.15365222 128.23828125 80.86328125 C128.89828125 80.86328125 129.55828125 80.86328125 130.23828125 80.86328125 C130.38265625 79.72890625 130.52703125 78.59453125 130.67578125 77.42578125 C131.23828125 73.86328125 131.23828125 73.86328125 132.23828125 72.86328125 C131.12710937 72.4765625 130.0159375 72.08984375 128.87109375 71.69140625 C120.9202815 68.91282922 113.0262242 66.0749254 105.23828125 62.86328125 C97.0074792 59.48309348 88.84992756 56.17322873 80.23828125 53.86328125 C80.23828125 53.20328125 80.23828125 52.54328125 80.23828125 51.86328125 C79.49578125 51.90453125 78.75328125 51.94578125 77.98828125 51.98828125 C75.15069173 51.85929991 73.65054187 51.29276903 71.23828125 49.86328125 C71.23828125 49.20328125 71.23828125 48.54328125 71.23828125 47.86328125 C69.95953125 47.61578125 68.68078125 47.36828125 67.36328125 47.11328125 C62.87454886 46.12915853 58.80767276 44.58858967 54.59765625 42.765625 C52.15691453 41.83216252 49.80948428 41.3054917 47.23828125 40.86328125 C47.23828125 40.20328125 47.23828125 39.54328125 47.23828125 38.86328125 C46.29662109 38.7240625 46.29662109 38.7240625 45.3359375 38.58203125 C40.96512791 37.56787114 36.86620506 35.9526423 32.67578125 34.36328125 C30.98770683 33.72593397 29.29892819 33.09044805 27.609375 32.45703125 C26.8661499 32.17537109 26.1229248 31.89371094 25.35717773 31.60351562 C23.33363956 30.89659458 21.32518432 30.34716659 19.23828125 29.86328125 C19.23828125 29.20328125 19.23828125 28.54328125 19.23828125 27.86328125 C18.14515625 27.71890625 17.05203125 27.57453125 15.92578125 27.42578125 C12.23828125 26.86328125 12.23828125 26.86328125 9.23828125 25.86328125 C9.23828125 25.20328125 9.23828125 24.54328125 9.23828125 23.86328125 C8.47515625 23.71890625 7.71203125 23.57453125 6.92578125 23.42578125 C4.23828125 22.86328125 4.23828125 22.86328125 1.23828125 21.86328125 C1.23828125 23.18328125 1.23828125 24.50328125 1.23828125 25.86328125 C0.57828125 25.86328125 -0.08171875 25.86328125 -0.76171875 25.86328125 C-0.89980957 26.43312744 -1.03790039 27.00297363 -1.18017578 27.59008789 C-2.18974263 31.53638384 -3.42786199 35.4118006 -4.63671875 39.30078125 C-4.89324219 40.14705078 -5.14976562 40.99332031 -5.4140625 41.86523438 C-6.78463747 46.26278269 -8.26424613 49.96141267 -10.76171875 53.86328125 C-11.37432191 55.44899066 -11.94079422 57.0536649 -12.44921875 58.67578125 C-12.70058594 59.46597656 -12.95195312 60.25617188 -13.2109375 61.0703125 C-13.48357422 61.95783203 -13.48357422 61.95783203 -13.76171875 62.86328125 C-14.42171875 62.86328125 -15.08171875 62.86328125 -15.76171875 62.86328125 C-15.725625 63.5903125 -15.68953125 64.31734375 -15.65234375 65.06640625 C-15.76786142 68.02035805 -16.36187121 69.90671705 -17.51171875 72.61328125 C-17.87394531 73.48082031 -18.23617187 74.34835938 -18.609375 75.2421875 C-19.68817232 77.69599429 -20.81574732 80.12191391 -21.94921875 82.55078125 C-23.66411847 86.3062787 -24.18907923 89.772999 -24.76171875 93.86328125 C-26.19921875 95.42578125 -26.19921875 95.42578125 -27.76171875 96.86328125 C-28.4799859 98.84533492 -29.13419928 100.85065516 -29.76171875 102.86328125 C-32.83257949 112.53427253 -36.0238666 121.86009043 -40.4375 131.01171875 C-43.5858936 137.69175619 -43.5858936 137.69175619 -44.76171875 144.86328125 C-45.42171875 144.86328125 -46.08171875 144.86328125 -46.76171875 144.86328125 C-47.42171875 147.83328125 -48.08171875 150.80328125 -48.76171875 153.86328125 C-49.42171875 153.86328125 -50.08171875 153.86328125 -50.76171875 153.86328125 C-50.76171875 155.51328125 -50.76171875 157.16328125 -50.76171875 158.86328125 C-51.42171875 158.86328125 -52.08171875 158.86328125 -52.76171875 158.86328125 C-52.88675781 159.72953125 -53.01179688 160.59578125 -53.140625 161.48828125 C-53.74311152 164.76217024 -54.61460677 167.71995293 -55.69921875 170.86328125 C-56.20775391 172.34828125 -56.20775391 172.34828125 -56.7265625 173.86328125 C-57.06816406 174.85328125 -57.40976562 175.84328125 -57.76171875 176.86328125 C-58.43046766 178.86258596 -59.09773245 180.86238979 -59.76171875 182.86328125 C-60.42171875 182.86328125 -61.08171875 182.86328125 -61.76171875 182.86328125 C-61.88546875 183.68828125 -62.00921875 184.51328125 -62.13671875 185.36328125 C-62.8327403 189.26100192 -63.77052824 193.03067794 -64.76171875 196.86328125 C-65.42171875 196.86328125 -66.08171875 196.86328125 -66.76171875 196.86328125 C-66.87902344 197.56195313 -66.99632812 198.260625 -67.1171875 198.98046875 C-67.82426279 202.1430237 -68.87913559 204.97652368 -70.07421875 207.98828125 C-72.39871747 213.91440152 -74.61241682 219.87165185 -76.76171875 225.86328125 C-77.42171875 225.86328125 -78.08171875 225.86328125 -78.76171875 225.86328125 C-78.76171875 227.18328125 -78.76171875 228.50328125 -78.76171875 229.86328125 C-79.42171875 229.86328125 -80.08171875 229.86328125 -80.76171875 229.86328125 C-80.86484375 231.03890625 -80.96796875 232.21453125 -81.07421875 233.42578125 C-81.59892733 237.63823042 -82.99537483 240.99091188 -84.76171875 244.86328125 C-85.56967307 247.16774208 -86.323539 249.48618918 -87.078125 251.80859375 C-87.87473529 254.20297668 -88.82465572 256.52062368 -89.76171875 258.86328125 C-90.22546857 260.25732438 -90.68311933 261.65340238 -91.13671875 263.05078125 C-92.79682897 268.08091521 -94.7443977 272.96714972 -96.76171875 277.86328125 C-97.15488281 278.82492187 -97.54804688 279.7865625 -97.953125 280.77734375 C-99.94751173 285.61638866 -102.00347846 290.39150609 -104.26171875 295.11328125 C-106.67478668 300.3252054 -108.31353779 305.65614275 -109.94824219 311.14672852 C-111.43808947 316.06808016 -113.36892694 320.33406819 -115.76171875 324.86328125 C-116.52926707 327.67777039 -116.52926707 327.67777039 -116.76171875 329.86328125 C-117.42171875 329.86328125 -118.08171875 329.86328125 -118.76171875 329.86328125 C-118.86871094 330.85585938 -118.97570312 331.8484375 -119.0859375 332.87109375 C-119.68817175 337.06669416 -121.03405166 340.80545605 -122.57421875 344.73828125 C-122.84266602 345.44082031 -123.11111328 346.14335937 -123.38769531 346.8671875 C-125.09354257 351.28808985 -126.96102396 355.60623318 -128.9609375 359.90234375 C-129.81597571 361.99614463 -130.33443638 364.03226961 -130.82421875 366.23828125 C-131.75012015 369.81843331 -132.14673515 370.5751706 -134.76171875 372.86328125 C-136.79982188 376.92232182 -137.0109552 380.30708812 -137.00895691 384.81556702 C-137.01137132 385.50305367 -137.01378574 386.19054033 -137.01627332 386.89885992 C-137.02189593 389.19577299 -137.01325823 391.49240618 -137.00463867 393.78930664 C-137.00571191 395.43870621 -137.0076512 397.08810541 -137.01039124 398.73750305 C-137.01523576 403.21257673 -137.00758897 407.68755059 -136.99743819 412.1626122 C-136.98865182 416.84525898 -136.99041525 421.52790269 -136.99079895 426.21055603 C-136.98986261 434.07308624 -136.98118235 441.93557783 -136.9675293 449.7980957 C-136.95179866 458.89070229 -136.94653141 467.98326662 -136.94726485 477.07588583 C-136.94787503 485.82122577 -136.94277084 494.56655194 -136.93447304 503.31188774 C-136.930941 507.03468368 -136.9291099 510.75747476 -136.92857933 514.48027229 C-136.92757535 518.86248892 -136.92147421 523.24467002 -136.91141319 527.62687492 C-136.90849067 529.23614153 -136.90726232 530.84541224 -136.90784073 532.4546814 C-136.90833103 534.64915184 -136.90267962 536.84352257 -136.89543152 539.03797913 C-136.89375567 540.26668763 -136.89207983 541.49539614 -136.8903532 542.76133823 C-136.78382314 545.33024706 -136.52367076 547.42478505 -135.76171875 549.86328125 C-134.11171875 550.19328125 -132.46171875 550.52328125 -130.76171875 550.86328125 C-130.76171875 551.52328125 -130.76171875 552.18328125 -130.76171875 552.86328125 C-128.86717503 552.97205888 -126.97080121 553.04922298 -125.07421875 553.11328125 C-123.49060547 553.18289063 -123.49060547 553.18289063 -121.875 553.25390625 C-116.99080884 552.64108427 -114.77669646 550.04208653 -111.65625 546.41796875 C-110.96917969 545.53367187 -110.28210938 544.649375 -109.57421875 543.73828125 C-105.59585538 538.75696913 -101.31615919 534.28230174 -96.73046875 529.859375 C-94.70898982 528.01588819 -94.70898982 528.01588819 -93.76171875 525.86328125 C-93.10171875 525.86328125 -92.44171875 525.86328125 -91.76171875 525.86328125 C-91.43171875 524.87328125 -91.10171875 523.88328125 -90.76171875 522.86328125 C-89.45136887 521.50735398 -88.11409675 520.17729392 -86.76171875 518.86328125 C-85.32775299 517.12742796 -83.91209465 515.37634443 -82.51171875 513.61328125 C-79.01181542 509.27896388 -75.35730628 505.3258156 -71.29296875 501.51953125 C-69.52281301 499.83293315 -69.52281301 499.83293315 -68.76171875 496.86328125 C-67.77171875 496.86328125 -66.78171875 496.86328125 -65.76171875 496.86328125 C-65.76171875 496.20328125 -65.76171875 495.54328125 -65.76171875 494.86328125 C-64.11803735 493.17394203 -62.44743115 491.51068201 -60.76171875 489.86328125 C-60.03984375 488.93515625 -59.31796875 488.00703125 -58.57421875 487.05078125 C-57.97609375 486.32890625 -57.37796875 485.60703125 -56.76171875 484.86328125 C-56.10171875 484.86328125 -55.44171875 484.86328125 -54.76171875 484.86328125 C-54.45234375 484.24453125 -54.14296875 483.62578125 -53.82421875 482.98828125 C-53.13671875 481.61328125 -52.44921875 480.23828125 -51.76171875 478.86328125 C-51.10171875 478.86328125 -50.44171875 478.86328125 -49.76171875 478.86328125 C-49.48972656 478.27417969 -49.21773438 477.68507813 -48.9375 477.078125 C-46.06212346 471.66171803 -41.25927686 466.98604285 -36.76171875 462.86328125 C-36.10171875 462.86328125 -35.44171875 462.86328125 -34.76171875 462.86328125 C-34.47296875 462.26515625 -34.18421875 461.66703125 -33.88671875 461.05078125 C-32.76171875 458.86328125 -32.76171875 458.86328125 -30.76171875 455.86328125 C-30.10171875 455.86328125 -29.44171875 455.86328125 -28.76171875 455.86328125 C-28.37306641 454.99703125 -28.37306641 454.99703125 -27.9765625 454.11328125 C-26.66834418 451.69034314 -25.17306144 449.89899621 -23.32421875 447.86328125 C-21.48274816 445.82692501 -19.75476004 443.85348121 -18.1640625 441.61328125 C-17.46990234 440.74703125 -17.46990234 440.74703125 -16.76171875 439.86328125 C-16.10171875 439.86328125 -15.44171875 439.86328125 -14.76171875 439.86328125 C-14.10171875 438.54328125 -13.44171875 437.22328125 -12.76171875 435.86328125 C-12.10171875 435.86328125 -11.44171875 435.86328125 -10.76171875 435.86328125 C-10.76171875 435.20328125 -10.76171875 434.54328125 -10.76171875 433.86328125 C-10.10171875 433.86328125 -9.44171875 433.86328125 -8.76171875 433.86328125 C-8.76171875 433.20328125 -8.76171875 432.54328125 -8.76171875 431.86328125 C-8.10171875 431.86328125 -7.44171875 431.86328125 -6.76171875 431.86328125 C-4.81083652 426.24474043 -3.12999528 420.65214349 -1.76171875 414.86328125 C-1.10171875 414.86328125 -0.44171875 414.86328125 0.23828125 414.86328125 C0.23828125 413.87328125 0.23828125 412.88328125 0.23828125 411.86328125 C0.89828125 411.86328125 1.55828125 411.86328125 2.23828125 411.86328125 C2.15126953 410.75146484 2.15126953 410.75146484 2.0625 409.6171875 C2.26916033 406.37950893 3.02422588 405.28096945 5.05078125 402.80078125 C5.57285156 402.14980469 6.09492188 401.49882812 6.6328125 400.828125 C7.16261719 400.17972656 7.69242188 399.53132813 8.23828125 398.86328125 C8.75777344 398.12207031 9.27726563 397.38085938 9.8125 396.6171875 C10.28300781 396.03839844 10.75351562 395.45960938 11.23828125 394.86328125 C11.89828125 394.86328125 12.55828125 394.86328125 13.23828125 394.86328125 C13.23828125 394.20328125 13.23828125 393.54328125 13.23828125 392.86328125 C13.89828125 392.86328125 14.55828125 392.86328125 15.23828125 392.86328125 C15.23828125 392.20328125 15.23828125 391.54328125 15.23828125 390.86328125 C15.89828125 390.86328125 16.55828125 390.86328125 17.23828125 390.86328125 C17.60953125 390.02796875 17.60953125 390.02796875 17.98828125 389.17578125 C19.45413179 386.46395775 21.29283824 384.24801785 23.23828125 381.86328125 C23.56828125 381.20328125 23.89828125 380.54328125 24.23828125 379.86328125 C24.89828125 379.86328125 25.55828125 379.86328125 26.23828125 379.86328125 C26.23828125 379.20328125 26.23828125 378.54328125 26.23828125 377.86328125 C27.9044003 377.82056025 29.5721101 377.82264293 31.23828125 377.86328125 C32.23828125 378.86328125 32.23828125 378.86328125 32.55078125 381.73828125 C32.51328135 386.26639449 30.85482968 390.14679473 29.2109375 394.3125 C28.3794136 396.49316308 27.74419742 398.5893212 27.23828125 400.86328125 C26.57828125 400.86328125 25.91828125 400.86328125 25.23828125 400.86328125 C25.109375 401.56195313 24.98046875 402.260625 24.84765625 402.98046875 C23.04969342 411.48621598 20.13324907 419.50296319 16.41015625 427.33984375 C14.81134951 430.7826076 13.51875595 434.29143076 12.23828125 437.86328125 C11.57828125 437.86328125 10.91828125 437.86328125 10.23828125 437.86328125 C10.23828125 438.52328125 10.23828125 439.18328125 10.23828125 439.86328125 C9.57828125 439.86328125 8.91828125 439.86328125 8.23828125 439.86328125 C7.90828125 440.85328125 7.57828125 441.84328125 7.23828125 442.86328125 C6.57828125 442.86328125 5.91828125 442.86328125 5.23828125 442.86328125 C4.94953125 443.46140625 4.66078125 444.05953125 4.36328125 444.67578125 C3.23828125 446.86328125 3.23828125 446.86328125 1.23828125 449.86328125 C0.57828125 449.86328125 -0.08171875 449.86328125 -0.76171875 449.86328125 C-0.76171875 450.52328125 -0.76171875 451.18328125 -0.76171875 451.86328125 C-1.42171875 451.86328125 -2.08171875 451.86328125 -2.76171875 451.86328125 C-2.98730469 452.40726563 -3.21289062 452.95125 -3.4453125 453.51171875 C-5.17395662 456.59968244 -7.40722019 458.90783099 -9.82421875 461.48828125 C-13.17705522 464.90537878 -13.17705522 464.90537878 -15.76171875 468.86328125 C-16.42171875 468.86328125 -17.08171875 468.86328125 -17.76171875 468.86328125 C-18.10203125 469.66765625 -18.10203125 469.66765625 -18.44921875 470.48828125 C-20.21741964 473.68788286 -22.29842078 476.15365348 -24.76171875 478.86328125 C-25.42171875 478.86328125 -26.08171875 478.86328125 -26.76171875 478.86328125 C-26.76171875 479.52328125 -26.76171875 480.18328125 -26.76171875 480.86328125 C-27.42171875 480.86328125 -28.08171875 480.86328125 -28.76171875 480.86328125 C-29.00921875 481.415 -29.25671875 481.96671875 -29.51171875 482.53515625 C-31.00406349 485.31464832 -32.79844398 487.64475195 -34.76171875 490.11328125 C-35.46296875 491.0053125 -36.16421875 491.89734375 -36.88671875 492.81640625 C-37.50546875 493.491875 -38.12421875 494.16734375 -38.76171875 494.86328125 C-39.42171875 494.86328125 -40.08171875 494.86328125 -40.76171875 494.86328125 C-41.01824219 495.44851563 -41.27476562 496.03375 -41.5390625 496.63671875 C-42.86734037 499.05562733 -44.32696676 500.59526997 -46.32421875 502.48828125 C-48.90187264 504.90850084 -48.90187264 504.90850084 -50.76171875 507.86328125 C-51.42171875 507.86328125 -52.08171875 507.86328125 -52.76171875 507.86328125 C-52.76171875 508.52328125 -52.76171875 509.18328125 -52.76171875 509.86328125 C-53.42171875 509.86328125 -54.08171875 509.86328125 -54.76171875 509.86328125 C-55.00921875 510.415 -55.25671875 510.96671875 -55.51171875 511.53515625 C-57.00406349 514.31464832 -58.79844398 516.64475195 -60.76171875 519.11328125 C-61.46296875 520.0053125 -62.16421875 520.89734375 -62.88671875 521.81640625 C-63.50546875 522.491875 -64.12421875 523.16734375 -64.76171875 523.86328125 C-65.42171875 523.86328125 -66.08171875 523.86328125 -66.76171875 523.86328125 C-66.99761719 524.42789063 -67.23351562 524.9925 -67.4765625 525.57421875 C-69.05406817 528.38400088 -71.00223161 530.25947176 -73.32421875 532.48828125 C-76.45213929 535.37398806 -76.45213929 535.37398806 -78.76171875 538.86328125 C-79.42171875 538.86328125 -80.08171875 538.86328125 -80.76171875 538.86328125 C-81.00921875 539.415 -81.25671875 539.96671875 -81.51171875 540.53515625 C-83.00406349 543.31464832 -84.79844398 545.64475195 -86.76171875 548.11328125 C-87.46296875 549.0053125 -88.16421875 549.89734375 -88.88671875 550.81640625 C-89.50546875 551.491875 -90.12421875 552.16734375 -90.76171875 552.86328125 C-91.42171875 552.86328125 -92.08171875 552.86328125 -92.76171875 552.86328125 C-93.01824219 553.44851563 -93.27476562 554.03375 -93.5390625 554.63671875 C-94.86734037 557.05562733 -96.32696676 558.59526997 -98.32421875 560.48828125 C-100.90187264 562.90850084 -100.90187264 562.90850084 -102.76171875 565.86328125 C-103.42171875 565.86328125 -104.08171875 565.86328125 -104.76171875 565.86328125 C-104.76171875 566.52328125 -104.76171875 567.18328125 -104.76171875 567.86328125 C-105.42171875 567.86328125 -106.08171875 567.86328125 -106.76171875 567.86328125 C-107.16390625 568.72953125 -107.16390625 568.72953125 -107.57421875 569.61328125 C-108.79101064 571.91878168 -110.06505754 573.88384317 -111.76171875 575.86328125 C-112.42171875 575.86328125 -113.08171875 575.86328125 -113.76171875 575.86328125 C-114.07109375 576.48203125 -114.38046875 577.10078125 -114.69921875 577.73828125 C-115.38671875 579.11328125 -116.07421875 580.48828125 -116.76171875 581.86328125 C-117.42171875 581.86328125 -118.08171875 581.86328125 -118.76171875 581.86328125 C-119.02984375 582.4459375 -119.29796875 583.02859375 -119.57421875 583.62890625 C-120.77652866 585.89114726 -122.09997788 587.66904443 -123.76171875 589.61328125 C-124.27734375 590.226875 -124.79296875 590.84046875 -125.32421875 591.47265625 C-126.76171875 592.86328125 -126.76171875 592.86328125 -128.76171875 592.86328125 C-129.09171875 593.85328125 -129.42171875 594.84328125 -129.76171875 595.86328125 C-130.42171875 595.86328125 -131.08171875 595.86328125 -131.76171875 595.86328125 C-132.42171875 597.18328125 -133.08171875 598.50328125 -133.76171875 599.86328125 C-134.42171875 599.86328125 -135.08171875 599.86328125 -135.76171875 599.86328125 C-136.07109375 600.66765625 -136.38046875 601.47203125 -136.69921875 602.30078125 C-137.76171875 604.86328125 -137.76171875 604.86328125 -138.76171875 605.86328125 C-142.74932318 606.52788199 -144.69731003 606.54221079 -148.15625 604.3359375 C-149.74182626 603.08335787 -151.30564418 601.80262189 -152.84375 600.4921875 C-154.67066365 598.80959101 -154.67066365 598.80959101 -156.76171875 597.86328125 C-156.80842808 569.03897881 -156.84370238 540.21468204 -156.86534309 511.39034939 C-156.8673961 508.72662287 -156.86946544 506.06289638 -156.87158203 503.39916992 C-156.87210665 502.73708962 -156.87263127 502.07500931 -156.87317179 501.39286596 C-156.88133114 491.34189716 -156.89537283 481.29094728 -156.91259766 471.23999023 C-156.93252468 459.57573225 -156.94543357 447.91149129 -156.94989574 436.24721676 C-156.95250427 430.07041858 -156.95864017 423.8936691 -156.97317886 417.71688652 C-156.98675186 411.90329136 -156.99094193 406.08976498 -156.98793411 400.27615547 C-156.9884844 398.14245352 -156.99246349 396.00874928 -157.0001297 393.87506104 C-157.01008642 390.96097004 -157.00768487 388.04713844 -157.00222778 385.13304138 C-157.00805347 384.28964075 -157.01387915 383.44624012 -157.01988137 382.57728189 C-156.99484976 377.62859241 -156.34518571 373.5585973 -154.76171875 368.86328125 C-154.10171875 368.86328125 -153.44171875 368.86328125 -152.76171875 368.86328125 C-152.76171875 367.21328125 -152.76171875 365.56328125 -152.76171875 363.86328125 C-152.10171875 363.86328125 -151.44171875 363.86328125 -150.76171875 363.86328125 C-150.51421875 362.58453125 -150.26671875 361.30578125 -150.01171875 359.98828125 C-149.02759603 355.49954886 -147.48702717 351.43267276 -145.6640625 347.22265625 C-144.73060002 344.78191453 -144.2039292 342.43448428 -143.76171875 339.86328125 C-143.10171875 339.86328125 -142.44171875 339.86328125 -141.76171875 339.86328125 C-141.58382812 339.10337891 -141.58382812 339.10337891 -141.40234375 338.328125 C-138.28798203 326.34542839 -134.49482747 313.85828427 -128.76171875 302.86328125 C-128.10171875 302.86328125 -127.44171875 302.86328125 -126.76171875 302.86328125 C-126.67921875 301.93515625 -126.59671875 301.00703125 -126.51171875 300.05078125 C-125.44020346 292.5195595 -122.13142432 285.60269238 -118.76171875 278.86328125 C-118.00598118 276.73585816 -117.31930642 274.59089955 -116.62890625 272.44140625 C-115.67530894 269.60638721 -114.60409512 266.83527005 -113.51171875 264.05078125 C-111.60812815 259.17713062 -109.8575556 254.2721306 -108.16601562 249.32104492 C-105.76646937 242.30185387 -103.35827746 235.57749145 -99.8203125 229.03515625 C-98.26198072 225.83798846 -97.34796087 222.51943253 -96.4375 219.08984375 C-95.75928328 216.85525689 -94.86385768 214.91748062 -93.76171875 212.86328125 C-93.10171875 212.86328125 -92.44171875 212.86328125 -91.76171875 212.86328125 C-91.76171875 210.88328125 -91.76171875 208.90328125 -91.76171875 206.86328125 C-91.10171875 206.86328125 -90.44171875 206.86328125 -89.76171875 206.86328125 C-89.63216797 206.00669922 -89.63216797 206.00669922 -89.5 205.1328125 C-88.20048273 197.63376332 -85.61125397 190.89694414 -82.76171875 183.86328125 C-80.83045135 178.92054604 -79.14863531 173.98420393 -77.76171875 168.86328125 C-77.10171875 168.86328125 -76.44171875 168.86328125 -75.76171875 168.86328125 C-75.65859375 168.20457031 -75.55546875 167.54585937 -75.44921875 166.8671875 C-74.56977801 163.02463108 -73.18750099 159.46948035 -71.76171875 155.80078125 C-69.48270089 149.92217993 -69.48270089 149.92217993 -67.76171875 143.86328125 C-67.10171875 143.86328125 -66.44171875 143.86328125 -65.76171875 143.86328125 C-65.62217773 143.28384766 -65.48263672 142.70441406 -65.33886719 142.10742188 C-64.40342075 138.47010223 -63.19442847 134.92654495 -62.01171875 131.36328125 C-61.74584961 130.56172607 -61.47998047 129.7601709 -61.20605469 128.93432617 C-59.30478726 123.2854771 -57.14591713 117.80064037 -54.78125 112.328125 C-53.50344483 109.23887188 -52.65586276 106.08219969 -51.76171875 102.86328125 C-50.84151714 100.47162517 -49.86858999 98.1045846 -48.89453125 95.734375 C-47.60812382 92.47399755 -46.46810701 89.17624064 -45.32421875 85.86328125 C-43.87348818 81.74992932 -42.35205534 77.84897014 -40.32421875 73.98828125 C-37.10287576 67.85045424 -34.84280663 61.35654687 -32.48852539 54.85058594 C-31.71885588 52.74608146 -30.92259094 50.65265859 -30.125 48.55859375 C-29.03736934 45.61046021 -28.2445022 42.95309531 -27.76171875 39.86328125 C-27.10171875 39.86328125 -26.44171875 39.86328125 -25.76171875 39.86328125 C-25.42140625 38.06890625 -25.42140625 38.06890625 -25.07421875 36.23828125 C-23.22448055 27.85457576 -19.98528424 19.80280365 -16.76171875 11.86328125 C-16.10171875 11.86328125 -15.44171875 11.86328125 -14.76171875 11.86328125 C-14.1414992 8.9393891 -13.67117031 6.08715175 -13.32421875 3.11328125 C-13.13859375 2.04078125 -12.95296875 0.96828125 -12.76171875 -0.13671875 C-8.56505981 -2.23504822 -4.33306399 -1.30936825 0 0 Z M-63.76171875 422.86328125 C-64.09171875 426.16328125 -64.42171875 429.46328125 -64.76171875 432.86328125 C-64.10171875 432.53328125 -63.44171875 432.20328125 -62.76171875 431.86328125 C-62.76171875 431.20328125 -62.76171875 430.54328125 -62.76171875 429.86328125 C-62.10171875 429.86328125 -61.44171875 429.86328125 -60.76171875 429.86328125 C-59.11705135 427.40001413 -59.11705135 427.40001413 -57.76171875 424.86328125 C-59.74171875 424.20328125 -61.72171875 423.54328125 -63.76171875 422.86328125 Z M-137.76171875 566.86328125 C-137.76171875 569.83328125 -137.76171875 572.80328125 -137.76171875 575.86328125 C-134.33592926 572.68788569 -134.33592926 572.68788569 -131.76171875 568.86328125 C-133.74171875 568.20328125 -135.72171875 567.54328125 -137.76171875 566.86328125 Z " fill="#2C3044" transform="translate(374.76171875,72.13671875)"/>
<path d="" fill="#2C3044" transform="translate(0,0)"/>
<path d="" fill="#2C3044" transform="translate(0,0)"/>
<path d="M0 0 C2 1 2 1 2 1 Z " fill="#2C3044" transform="translate(407,84)"/>
<path d="" fill="#2C3044" transform="translate(0,0)"/>
<path d="" fill="#2C3044" transform="translate(0,0)"/>
<path d="" fill="#2C3044" transform="translate(0,0)"/>
<path d="" fill="#2C3044" transform="translate(0,0)"/>
<path d="" fill="#2C3044" transform="translate(0,0)"/>
<path d="" fill="#2C3044" transform="translate(0,0)"/>
<path d="" fill="#2C3044" transform="translate(0,0)"/>
<path d="" fill="#2C3044" transform="translate(0,0)"/>
<path d="" fill="#2C3044" transform="translate(0,0)"/>
<path d="" fill="#2C3044" transform="translate(0,0)"/>
<path d="" fill="#2C3044" transform="translate(0,0)"/>
<path d="" fill="#2C3044" transform="translate(0,0)"/>
<path d="" fill="#2C3044" transform="translate(0,0)"/>
<path d="" fill="#2C3044" transform="translate(0,0)"/>
<path d="" fill="#2C3044" transform="translate(0,0)"/>
<path d="" fill="#2C3044" transform="translate(0,0)"/>
<path d="" fill="#2C3044" transform="translate(0,0)"/>
<path d="" fill="#2C3044" transform="translate(0,0)"/>
<path d="" fill="#2C3044" transform="translate(0,0)"/>
<path d="" fill="#2C3044" transform="translate(0,0)"/>
</svg>
