<svg width="17" height="17" viewBox="0 0 17 17" fill="none" xmlns="http://www.w3.org/2000/svg">
<mask id="path-1-inside-1_290_823" fill="white">
<path d="M3.77143 2.12143C3.77143 1.55879 3.99494 1.0192 4.39278 0.621352C4.79063 0.223507 5.33022 0 5.89286 0H14.3786C14.9412 0 15.4808 0.223507 15.8786 0.621352C16.2765 1.0192 16.5 1.55879 16.5 2.12143V10.6071C16.5 11.1698 16.2765 11.7094 15.8786 12.1072C15.4808 12.5051 14.9412 12.7286 14.3786 12.7286H12.7286V14.3786C12.7286 14.9412 12.5051 15.4808 12.1072 15.8786C11.7094 16.2765 11.1698 16.5 10.6071 16.5H2.12143C1.55879 16.5 1.0192 16.2765 0.621352 15.8786C0.223507 15.4808 0 14.9412 0 14.3786V5.89286C0 5.33022 0.223507 4.79063 0.621352 4.39278C1.0192 3.99494 1.55879 3.77143 2.12143 3.77143H3.77143V2.12143ZM11.3143 5.89286C11.3143 5.70531 11.2398 5.52545 11.1072 5.39283C10.9746 5.26022 10.7947 5.18571 10.6071 5.18571H2.12143C1.93388 5.18571 1.75402 5.26022 1.6214 5.39283C1.48879 5.52545 1.41429 5.70531 1.41429 5.89286V12.4382L6.7584 9.66806C7.14647 9.46668 7.58727 9.39012 8.02051 9.44886C8.45376 9.50759 8.85827 9.69875 9.17871 9.99617L11.3143 11.9799V5.89286ZM1.41429 14.3786C1.41429 14.7689 1.73109 15.0857 2.12143 15.0857H10.6071C10.7947 15.0857 10.9746 15.0112 11.1072 14.8786C11.2398 14.746 11.3143 14.5661 11.3143 14.3786V13.91L8.21606 11.0333C8.1094 10.9342 7.97473 10.8703 7.83044 10.8506C7.68615 10.8309 7.53929 10.8561 7.40991 10.923L1.41429 14.0316V14.3786ZM5.18571 3.77143H10.6071C11.1698 3.77143 11.7094 3.99494 12.1072 4.39278C12.5051 4.79063 12.7286 5.33022 12.7286 5.89286V11.3143H14.3786C14.5661 11.3143 14.746 11.2398 14.8786 11.1072C15.0112 10.9746 15.0857 10.7947 15.0857 10.6071V2.12143C15.0857 1.93388 15.0112 1.75402 14.8786 1.6214C14.746 1.48879 14.5661 1.41429 14.3786 1.41429H5.89286C5.70531 1.41429 5.52545 1.48879 5.39283 1.6214C5.26022 1.75402 5.18571 1.93388 5.18571 2.12143V3.77143Z"/>
</mask>
<path d="M3.77143 2.12143C3.77143 1.55879 3.99494 1.0192 4.39278 0.621352C4.79063 0.223507 5.33022 0 5.89286 0H14.3786C14.9412 0 15.4808 0.223507 15.8786 0.621352C16.2765 1.0192 16.5 1.55879 16.5 2.12143V10.6071C16.5 11.1698 16.2765 11.7094 15.8786 12.1072C15.4808 12.5051 14.9412 12.7286 14.3786 12.7286H12.7286V14.3786C12.7286 14.9412 12.5051 15.4808 12.1072 15.8786C11.7094 16.2765 11.1698 16.5 10.6071 16.5H2.12143C1.55879 16.5 1.0192 16.2765 0.621352 15.8786C0.223507 15.4808 0 14.9412 0 14.3786V5.89286C0 5.33022 0.223507 4.79063 0.621352 4.39278C1.0192 3.99494 1.55879 3.77143 2.12143 3.77143H3.77143V2.12143ZM11.3143 5.89286C11.3143 5.70531 11.2398 5.52545 11.1072 5.39283C10.9746 5.26022 10.7947 5.18571 10.6071 5.18571H2.12143C1.93388 5.18571 1.75402 5.26022 1.6214 5.39283C1.48879 5.52545 1.41429 5.70531 1.41429 5.89286V12.4382L6.7584 9.66806C7.14647 9.46668 7.58727 9.39012 8.02051 9.44886C8.45376 9.50759 8.85827 9.69875 9.17871 9.99617L11.3143 11.9799V5.89286ZM1.41429 14.3786C1.41429 14.7689 1.73109 15.0857 2.12143 15.0857H10.6071C10.7947 15.0857 10.9746 15.0112 11.1072 14.8786C11.2398 14.746 11.3143 14.5661 11.3143 14.3786V13.91L8.21606 11.0333C8.1094 10.9342 7.97473 10.8703 7.83044 10.8506C7.68615 10.8309 7.53929 10.8561 7.40991 10.923L1.41429 14.0316V14.3786ZM5.18571 3.77143H10.6071C11.1698 3.77143 11.7094 3.99494 12.1072 4.39278C12.5051 4.79063 12.7286 5.33022 12.7286 5.89286V11.3143H14.3786C14.5661 11.3143 14.746 11.2398 14.8786 11.1072C15.0112 10.9746 15.0857 10.7947 15.0857 10.6071V2.12143C15.0857 1.93388 15.0112 1.75402 14.8786 1.6214C14.746 1.48879 14.5661 1.41429 14.3786 1.41429H5.89286C5.70531 1.41429 5.52545 1.48879 5.39283 1.6214C5.26022 1.75402 5.18571 1.93388 5.18571 2.12143V3.77143Z" fill="black"/>
<path d="M3.77143 2.12143H0.771429H3.77143ZM5.89286 0V-3V0ZM14.3786 12.7286V15.7286V12.7286ZM12.7286 12.7286V9.72857H9.72857V12.7286H12.7286ZM12.7286 14.3786H15.7286H12.7286ZM2.12143 3.77143V0.771429V3.77143ZM3.77143 3.77143V6.77143H6.77143V3.77143H3.77143ZM1.41429 5.89286H-1.58571H1.41429ZM1.41429 12.4382H-1.58571V17.3723L2.79488 15.1016L1.41429 12.4382ZM6.7584 9.66806L8.139 12.3315L8.14019 12.3309L6.7584 9.66806ZM9.17871 9.99617L11.2205 7.79817L11.2196 7.79735L9.17871 9.99617ZM11.3143 11.9799L9.27252 14.1779L14.3143 18.8613V11.9799H11.3143ZM11.3143 13.91H14.3143V12.6017L13.3555 11.7115L11.3143 13.91ZM8.21606 11.0333L6.17337 13.2305L6.17481 13.2318L8.21606 11.0333ZM7.40991 10.923L6.0326 8.25785L6.02905 8.25969L7.40991 10.923ZM1.41429 14.0316L0.0334199 11.3683L-1.58571 12.2078V14.0316H1.41429ZM5.18571 3.77143H2.18571V6.77143H5.18571V3.77143ZM10.6071 3.77143V0.771429V3.77143ZM12.7286 5.89286H15.7286H12.7286ZM12.7286 11.3143H9.72857V14.3143H12.7286V11.3143ZM14.3786 1.41429V-1.58571V1.41429ZM5.89286 1.41429V-1.58571V1.41429ZM3.77143 2.12143H6.77143C6.77143 2.35444 6.67886 2.57791 6.5141 2.74267L4.39278 0.621352L2.27146 -1.49997C1.31101 -0.539515 0.771429 0.763141 0.771429 2.12143H3.77143ZM4.39278 0.621352L6.5141 2.74267C6.34934 2.90744 6.12587 3 5.89286 3V0V-3C4.53457 -3 3.23191 -2.46042 2.27146 -1.49997L4.39278 0.621352ZM5.89286 0V3H14.3786V0V-3H5.89286V0ZM14.3786 0V3C14.1456 3 13.9221 2.90744 13.7573 2.74267L15.8786 0.621352L18 -1.49997C17.0395 -2.46042 15.7369 -3 14.3786 -3V0ZM15.8786 0.621352L13.7573 2.74267C13.5926 2.57791 13.5 2.35444 13.5 2.12143H16.5H19.5C19.5 0.763141 18.9604 -0.539515 18 -1.49997L15.8786 0.621352ZM16.5 2.12143H13.5V10.6071H16.5H19.5V2.12143H16.5ZM16.5 10.6071H13.5C13.5 10.3741 13.5926 10.1507 13.7573 9.9859L15.8786 12.1072L18 14.2285C18.9604 13.2681 19.5 11.9654 19.5 10.6071H16.5ZM15.8786 12.1072L13.7573 9.9859C13.9221 9.82114 14.1456 9.72857 14.3786 9.72857V12.7286V15.7286C15.7369 15.7286 17.0395 15.189 18 14.2285L15.8786 12.1072ZM14.3786 12.7286V9.72857H12.7286V12.7286V15.7286H14.3786V12.7286ZM12.7286 12.7286H9.72857V14.3786H12.7286H15.7286V12.7286H12.7286ZM12.7286 14.3786H9.72857C9.72857 14.1456 9.82114 13.9221 9.9859 13.7573L12.1072 15.8786L14.2285 18C15.189 17.0395 15.7286 15.7369 15.7286 14.3786H12.7286ZM12.1072 15.8786L9.9859 13.7573C10.1507 13.5926 10.3741 13.5 10.6071 13.5V16.5V19.5C11.9654 19.5 13.2681 18.9604 14.2285 18L12.1072 15.8786ZM10.6071 16.5V13.5H2.12143V16.5V19.5H10.6071V16.5ZM2.12143 16.5V13.5C2.35444 13.5 2.57791 13.5926 2.74267 13.7573L0.621352 15.8786L-1.49997 18C-0.539515 18.9604 0.76314 19.5 2.12143 19.5V16.5ZM0.621352 15.8786L2.74267 13.7573C2.90744 13.9221 3 14.1456 3 14.3786H0H-3C-3 15.7369 -2.46042 17.0395 -1.49997 18L0.621352 15.8786ZM0 14.3786H3V5.89286H0H-3V14.3786H0ZM0 5.89286H3C3 6.12587 2.90744 6.34934 2.74267 6.5141L0.621352 4.39278L-1.49997 2.27146C-2.46042 3.23191 -3 4.53457 -3 5.89286H0ZM0.621352 4.39278L2.74267 6.5141C2.57791 6.67886 2.35444 6.77143 2.12143 6.77143V3.77143V0.771429C0.76314 0.771429 -0.539515 1.31101 -1.49997 2.27146L0.621352 4.39278ZM2.12143 3.77143V6.77143H3.77143V3.77143V0.771429H2.12143V3.77143ZM3.77143 3.77143H6.77143V2.12143H3.77143H0.771429V3.77143H3.77143ZM11.3143 5.89286H14.3143C14.3143 4.90966 13.9237 3.96673 13.2285 3.27151L11.1072 5.39283L8.98585 7.51415C8.55586 7.08416 8.31429 6.50097 8.31429 5.89286H11.3143ZM11.1072 5.39283L13.2285 3.27151C12.5333 2.57629 11.5903 2.18571 10.6071 2.18571V5.18571V8.18571C9.99903 8.18571 9.41584 7.94414 8.98585 7.51415L11.1072 5.39283ZM10.6071 5.18571V2.18571H2.12143V5.18571V8.18571H10.6071V5.18571ZM2.12143 5.18571V2.18571C1.13823 2.18571 0.195304 2.57629 -0.499917 3.27151L1.6214 5.39283L3.74272 7.51415C3.31273 7.94414 2.72954 8.18571 2.12143 8.18571V5.18571ZM1.6214 5.39283L-0.499917 3.27151C-1.19514 3.96674 -1.58571 4.90966 -1.58571 5.89286H1.41429H4.41429C4.41429 6.50096 4.17272 7.08416 3.74272 7.51415L1.6214 5.39283ZM1.41429 5.89286H-1.58571V12.4382H1.41429H4.41429V5.89286H1.41429ZM1.41429 12.4382L2.79488 15.1016L8.139 12.3315L6.7584 9.66806L5.37781 7.00461L0.033691 9.77472L1.41429 12.4382ZM6.7584 9.66806L8.14019 12.3309C7.97948 12.4143 7.79692 12.446 7.6175 12.4217L8.02051 9.44886L8.42353 6.47605C7.37762 6.33426 6.31345 6.51908 5.37661 7.00523L6.7584 9.66806ZM8.02051 9.44886L7.6175 12.4217C7.43808 12.3973 7.27055 12.3182 7.13784 12.195L9.17871 9.99617L11.2196 7.79735C10.446 7.07932 9.46944 6.61784 8.42353 6.47605L8.02051 9.44886ZM9.17871 9.99617L7.13695 12.1942L9.27252 14.1779L11.3143 11.9799L13.356 9.78194L11.2205 7.79817L9.17871 9.99617ZM11.3143 11.9799H14.3143V5.89286H11.3143H8.31429V11.9799H11.3143ZM1.41429 14.3786H-1.58571C-1.58571 16.4258 0.0742315 18.0857 2.12143 18.0857V15.0857V12.0857C3.38794 12.0857 4.41429 13.1121 4.41429 14.3786H1.41429ZM2.12143 15.0857V18.0857H10.6071V15.0857V12.0857H2.12143V15.0857ZM10.6071 15.0857V18.0857C11.5903 18.0857 12.5333 17.6951 13.2285 16.9999L11.1072 14.8786L8.98585 12.7573C9.41584 12.3273 9.99904 12.0857 10.6071 12.0857V15.0857ZM11.1072 14.8786L13.2285 16.9999C13.9237 16.3047 14.3143 15.3618 14.3143 14.3786H11.3143H8.31429C8.31429 13.7705 8.55585 13.1873 8.98585 12.7573L11.1072 14.8786ZM11.3143 14.3786H14.3143V13.91H11.3143H8.31429V14.3786H11.3143ZM11.3143 13.91L13.3555 11.7115L10.2573 8.83484L8.21606 11.0333L6.17481 13.2318L9.27304 16.1084L11.3143 13.91ZM8.21606 11.0333L10.2587 8.83617C9.6996 8.31633 8.99359 7.98181 8.23718 7.8783L7.83044 10.8506L7.42371 13.8229C6.95587 13.7589 6.5192 13.552 6.17337 13.2305L8.21606 11.0333ZM7.83044 10.8506L8.23718 7.8783C7.48076 7.77479 6.71084 7.90735 6.0326 8.25786L7.40991 10.923L8.78723 13.5881C8.36774 13.8049 7.89155 13.8869 7.42371 13.8229L7.83044 10.8506ZM7.40991 10.923L6.02905 8.25969L0.0334199 11.3683L1.41429 14.0316L2.79515 16.6949L8.79078 13.5863L7.40991 10.923ZM1.41429 14.0316H-1.58571V14.3786H1.41429H4.41429V14.0316H1.41429ZM5.18571 3.77143V6.77143H10.6071V3.77143V0.771429H5.18571V3.77143ZM10.6071 3.77143V6.77143C10.3741 6.77143 10.1507 6.67886 9.9859 6.5141L12.1072 4.39278L14.2285 2.27146C13.2681 1.31101 11.9654 0.771429 10.6071 0.771429V3.77143ZM12.1072 4.39278L9.9859 6.5141C9.82114 6.34934 9.72857 6.12587 9.72857 5.89286H12.7286H15.7286C15.7286 4.53457 15.189 3.23191 14.2285 2.27146L12.1072 4.39278ZM12.7286 5.89286H9.72857V11.3143H12.7286H15.7286V5.89286H12.7286ZM12.7286 11.3143V14.3143H14.3786V11.3143V8.31429H12.7286V11.3143ZM14.3786 11.3143V14.3143C15.3618 14.3143 16.3047 13.9237 16.9999 13.2285L14.8786 11.1072L12.7573 8.98585C13.1873 8.55585 13.7705 8.31429 14.3786 8.31429V11.3143ZM14.8786 11.1072L16.9999 13.2285C17.6951 12.5333 18.0857 11.5903 18.0857 10.6071H15.0857H12.0857C12.0857 9.99904 12.3273 9.41584 12.7573 8.98585L14.8786 11.1072ZM15.0857 10.6071H18.0857V2.12143H15.0857H12.0857V10.6071H15.0857ZM15.0857 2.12143H18.0857C18.0857 1.13824 17.6951 0.195311 16.9999 -0.499917L14.8786 1.6214L12.7573 3.74272C12.3273 3.31272 12.0857 2.72953 12.0857 2.12143H15.0857ZM14.8786 1.6214L16.9999 -0.499917C16.3047 -1.19514 15.3618 -1.58571 14.3786 -1.58571V1.41429V4.41429C13.7705 4.41429 13.1873 4.17272 12.7573 3.74272L14.8786 1.6214ZM14.3786 1.41429V-1.58571H5.89286V1.41429V4.41429H14.3786V1.41429ZM5.89286 1.41429V-1.58571C4.90966 -1.58571 3.96674 -1.19514 3.27151 -0.499917L5.39283 1.6214L7.51415 3.74272C7.08416 4.17272 6.50096 4.41429 5.89286 4.41429V1.41429ZM5.39283 1.6214L3.27151 -0.499917C2.57629 0.195304 2.18571 1.13823 2.18571 2.12143H5.18571H8.18571C8.18571 2.72954 7.94414 3.31273 7.51415 3.74272L5.39283 1.6214ZM5.18571 2.12143H2.18571V3.77143H5.18571H8.18571V2.12143H5.18571Z" fill="black" mask="url(#path-1-inside-1_290_823)"/>
</svg>
