<svg width="40" height="37" viewBox="0 0 40 37" fill="none" xmlns="http://www.w3.org/2000/svg">
<path d="M36.1904 1.90481C37.2008 1.90481 38.1698 2.30617 38.8842 3.02061C39.5986 3.73506 40 4.70405 40 5.71442V32.3817C40 33.3921 39.5986 34.3611 38.8842 35.0755C38.1698 35.7899 37.2008 36.1913 36.1904 36.1913H5.71351C4.70314 36.1913 3.73415 35.7899 3.01971 35.0755C2.30527 34.3611 1.9039 33.3921 1.9039 32.3817V20.9529C1.9039 20.4477 2.10458 19.9632 2.4618 19.606C2.81902 19.2487 3.30352 19.0481 3.8087 19.0481C4.31389 19.0481 4.79838 19.2487 5.1556 19.606C5.51283 19.9632 5.71351 20.4477 5.71351 20.9529V24.953L15.228 15.4404C15.4491 15.2192 15.7116 15.0438 16.0005 14.9241C16.2895 14.8044 16.5991 14.7428 16.9119 14.7428C17.2246 14.7428 17.5343 14.8044 17.8232 14.9241C18.1121 15.0438 18.3746 15.2192 18.5957 15.4404L26.3387 23.1853L28.6969 20.8271C28.918 20.606 29.1805 20.4305 29.4694 20.3108C29.7583 20.1911 30.068 20.1295 30.3807 20.1295C30.6935 20.1295 31.0031 20.1911 31.2921 20.3108C31.581 20.4305 31.8435 20.606 32.0646 20.8271L36.1904 24.9549V5.71442H20.952C20.4468 5.71442 19.9623 5.51373 19.6051 5.15651C19.2478 4.79929 19.0471 4.3148 19.0471 3.80961C19.0471 3.30443 19.2478 2.81993 19.6051 2.46271C19.9623 2.10549 20.4468 1.90481 20.952 1.90481H36.1904ZM7.61832 0C7.97467 -7.93651e-07 8.32387 0.0999606 8.62625 0.288524C8.92862 0.477086 9.17204 0.746689 9.32883 1.06669L9.42026 1.28955L9.66789 2.00957C9.92923 2.77565 10.3503 3.47747 10.9033 4.06856C11.4563 4.65964 12.1286 5.1265 12.8756 5.43822L13.228 5.57156L13.948 5.81728C14.3044 5.93913 14.6168 6.16395 14.8455 6.4633C15.0742 6.76266 15.209 7.1231 15.2328 7.49906C15.2567 7.87501 15.1685 8.2496 14.9795 8.57546C14.7904 8.90131 14.509 9.1638 14.1708 9.32974L13.948 9.42117L13.228 9.66879C12.4619 9.93014 11.7601 10.3512 11.169 10.9042C10.5779 11.4572 10.111 12.1295 9.79932 12.8765L9.66598 13.2289L9.42026 13.9489C9.2984 14.3054 9.07358 14.6177 8.77423 14.8464C8.47488 15.0751 8.11444 15.2099 7.73848 15.2337C7.36252 15.2576 6.98794 15.1694 6.66208 14.9804C6.33622 14.7914 6.07373 14.51 5.9078 14.1718L5.81637 13.9489L5.56874 13.2289C5.3074 12.4628 4.88629 11.761 4.3333 11.1699C3.78031 10.5788 3.10805 10.1119 2.36105 9.80023L2.00866 9.66689L1.28865 9.42117C0.932186 9.29931 0.619864 9.07449 0.391169 8.77514C0.162474 8.47579 0.0276776 8.11535 0.0038235 7.73939C-0.0200306 7.36343 0.0681289 6.98884 0.257155 6.66299C0.446181 6.33713 0.727584 6.07464 1.06578 5.90871L1.28865 5.81728L2.00866 5.56965C2.77474 5.30831 3.47656 4.8872 4.06765 4.33421C4.65873 3.78122 5.12559 3.10896 5.43731 2.36196L5.57065 2.00957L5.81637 1.28955C5.94471 0.91352 6.18742 0.587032 6.51054 0.355798C6.83365 0.124563 7.22098 0.000158532 7.61832 0ZM27.6188 9.52403C28.3766 9.52403 29.1033 9.82505 29.6391 10.3609C30.175 10.8967 30.476 11.6235 30.476 12.3812C30.476 13.139 30.175 13.8658 29.6391 14.4016C29.1033 14.9374 28.3766 15.2384 27.6188 15.2384C26.861 15.2384 26.1343 14.9374 25.5984 14.4016C25.0626 13.8658 24.7616 13.139 24.7616 12.3812C24.7616 11.6235 25.0626 10.8967 25.5984 10.3609C26.1343 9.82505 26.861 9.52403 27.6188 9.52403Z" fill="black"/>
</svg>
