<?xml version="1.0" encoding="UTF-8"?>
<svg version="1.1" xmlns="http://www.w3.org/2000/svg" width="500" height="500">
<path d="M0 0 C1.84507623 -0.04671079 3.68973858 -0.11492997 5.53320312 -0.20507812 C20.85085789 -0.93971153 20.85085789 -0.93971153 26.16259766 3.01245117 C28.44637409 5.79841562 30.23745427 8.56034143 32.02734375 11.6796875 C33.29225976 13.30503084 34.58030661 14.91295627 35.90234375 16.4921875 C36.55332031 17.31332031 37.20429688 18.13445312 37.875 18.98046875 C39.42990846 20.93045377 40.99903895 22.86169634 42.5859375 24.78515625 C47.81505468 31.18932434 52.551676 37.76988148 56.90234375 44.8046875 C57.34231689 45.50787109 57.78229004 46.21105469 58.2355957 46.93554688 C64.31458228 57.00592737 67.7793959 66.07633448 67.6640625 77.91015625 C67.67962944 79.58396111 67.67962944 79.58396111 67.69551086 81.2915802 C67.72492481 84.81710478 67.72185583 88.34156382 67.71484375 91.8671875 C67.72377618 95.40322317 67.73985083 98.93898135 67.76631165 102.47492981 C67.78107206 104.66310493 67.78512313 106.85138851 67.77653503 109.03959656 C67.82286315 121.47660039 70.64402274 131.14325043 78.84375 140.82421875 C88.19576601 149.78575392 100.37934896 152.18444796 112.84375 151.95703125 C123.1230455 151.48756104 132.9044388 147.06686929 139.99609375 139.609375 C148.59966777 129.14655406 150.15904733 119.42327527 150.1328125 106.2109375 C150.14627656 103.92446978 150.16130115 101.63801081 150.17773438 99.3515625 C150.20046625 95.77508138 150.21491342 92.19958987 150.20239258 88.62304688 C150.13706951 63.15764247 150.13706951 63.15764247 157.02734375 51.6796875 C157.47682373 50.8757959 157.92630371 50.0719043 158.3894043 49.24365234 C159.61441462 47.14263215 160.91322714 45.13006667 162.27734375 43.1171875 C162.98503906 42.05032715 162.98503906 42.05032715 163.70703125 40.96191406 C170.95810806 30.15800349 179.09081503 20.05507216 187.73214722 10.33413696 C189.10272944 8.69296666 189.10272944 8.69296666 190.05911255 6.64901733 C191.47966119 4.09208877 192.71962157 2.49998452 195.02734375 0.6796875 C200.12464595 -0.47287126 205.1598105 -0.27725427 210.34765625 -0.13671875 C211.8540512 -0.12432002 213.36047777 -0.11533488 214.86691284 -0.10960388 C218.82180553 -0.08480695 222.77435905 -0.01114664 226.72839355 0.07208252 C229.95596221 0.13214127 233.18338772 0.15858515 236.41139412 0.18305874 C243.08341637 0.23371991 249.75534226 0.30668183 256.42626953 0.43920898 C257.60730255 0.46111801 258.78833557 0.48302704 260.00515747 0.50559998 C262.54315543 0.65179672 264.64879316 0.80666201 267.02734375 1.6796875 C269.71162094 5.20995727 270.71642836 8.69828997 271.65234375 12.9921875 C271.89210938 14.06082031 272.131875 15.12945312 272.37890625 16.23046875 C279.98668138 56.69833287 269.96732221 97.79429415 247.36572266 131.74316406 C245.14132368 134.96168516 242.76499689 138.06217874 240.40234375 141.1796875 C235.3979397 147.84760296 231.58063933 154.69023208 228.12988281 162.26806641 C227.33689055 164.00260529 226.52983659 165.73074072 225.71386719 167.45458984 C205.03210259 211.16929408 203.29288175 254.83124096 218.02734375 300.6796875 C218.35734375 301.3396875 218.68734375 301.9996875 219.02734375 302.6796875 C219.61280412 309.93939606 219.61280412 309.93939606 217.36841583 312.77733612 C214.41796394 315.17486854 212.91352851 315.182186 209.14440918 315.18762207 C207.33999611 315.20454102 207.33999611 315.20454102 205.49913025 315.22180176 C203.52439476 315.20965637 203.52439476 315.20965637 201.50976562 315.19726562 C200.10680922 315.20268683 198.70385851 315.20980948 197.30091858 315.21850586 C193.49301512 315.23674277 189.6855451 315.22967045 185.87763405 315.21698952 C181.89297948 315.20686363 177.90836207 315.21625404 173.92370605 315.22253418 C167.23210994 315.22981181 160.5406904 315.22021995 153.84912109 315.20117188 C146.11230617 315.17940278 138.37591288 315.18645408 130.63910818 315.2084775 C123.99694506 315.2266283 117.35490888 315.22919143 110.71272898 315.21872282 C106.74542231 315.21248608 102.77831384 315.21165707 98.8110199 315.22486877 C95.08114825 315.23642215 91.35182027 315.22841167 87.62200737 315.20529175 C85.59986494 315.19747793 83.57767653 315.20936494 81.55555725 315.22180176 C80.3526152 315.21052246 79.14967316 315.19924316 77.91027832 315.18762207 C76.86462959 315.18611397 75.81898087 315.18460587 74.74164581 315.18305206 C71.334174 314.55113987 70.16559747 313.3489402 68.02734375 310.6796875 C66.81735195 307.51509357 67.07659679 304.84336759 67.46484375 301.5546875 C69.59724962 282.41989879 68.9244088 263.09093005 58.02734375 246.6796875 C57.36734375 246.0196875 56.70734375 245.3596875 56.02734375 244.6796875 C56.02734375 243.6896875 56.02734375 242.6996875 56.02734375 241.6796875 C56.73117188 241.46876465 57.435 241.2578418 58.16015625 241.04052734 C90.02321918 232.98099883 90.02321918 232.98099883 118.02734375 216.6796875 C118.52742169 213.13754765 118.52742169 213.13754765 118.02734375 209.6796875 C116.12054427 207.35967926 116.12054427 207.35967926 112.8671875 207.30859375 C108.36983606 207.74323097 105.38020597 209.35176881 101.58984375 211.6171875 C90.90390374 217.61656412 79.60201537 221.73127138 68.02734375 225.6796875 C67.23215332 225.95329102 66.43696289 226.22689453 65.61767578 226.50878906 C37.75929146 235.84617643 4.65967788 237.21099003 -22.47265625 224.9296875 C-29.65307158 221.08338157 -35.00749218 215.76194429 -37.546875 207.89453125 C-38.47866063 203.04753628 -38.7504393 197.60245037 -37.47265625 192.80078125 C-35.62019648 184.94229956 -36.35657722 176.04042103 -39.29296875 168.6015625 C-40.38241635 165.5210555 -40.34360956 162.89461622 -39.97265625 159.6796875 C-38.47265625 156.7421875 -38.47265625 156.7421875 -36.97265625 154.6796875 C-37.75640625 154.1021875 -38.54015625 153.5246875 -39.34765625 152.9296875 C-41.87808 150.76075286 -42.79993207 149.69764592 -43.97265625 146.6796875 C-44.22392078 140.42200433 -42.14611724 134.46191391 -39.97265625 128.6796875 C-41.09414062 128.02613281 -41.09414062 128.02613281 -42.23828125 127.359375 C-49.05622872 123.23648006 -53.39988376 120.39800497 -55.97265625 112.6796875 C-57.58166857 97.57795759 -49.48080986 88.15852875 -40.97265625 76.6796875 C-39.44876879 74.61939165 -37.92844721 72.55662629 -36.41015625 70.4921875 C-35.76949219 69.63238281 -35.12882812 68.77257812 -34.46875 67.88671875 C-32.81745437 65.66501142 -32.81745437 65.66501142 -31.97265625 62.6796875 C-30.63932292 61.34635417 -29.30598958 60.01302083 -27.97265625 58.6796875 C-25.41575197 56.17885755 -25.41575197 56.17885755 -23.97265625 52.6796875 C-24.20252726 50.29792369 -24.20252726 50.29792369 -24.84765625 47.73046875 C-26.08479197 41.59089146 -26.35540373 35.68142355 -26.34765625 29.4296875 C-26.34894531 28.34373291 -26.35023437 27.25777832 -26.3515625 26.13891602 C-26.23776898 17.44340987 -24.94945838 9.85260405 -21.97265625 1.6796875 C-14.81225693 -0.05191234 -7.32649656 0.14549071 0 0 Z " fill="#020202" transform="translate(140.97265625,185.3203125)"/>
<path d="M0 0 C2.80420577 0.01608251 5.60697069 0.00008301 8.41113281 -0.01904297 C21.8850113 -0.03748878 33.15357387 1.5978381 45.37207031 7.57861328 C46.18925537 7.97371094 47.00644043 8.36880859 47.84838867 8.77587891 C54.37018354 12.0105753 60.2237407 15.70010103 65.80957031 20.39111328 C66.66808594 21.11169922 67.52660156 21.83228516 68.41113281 22.57470703 C70.94610093 24.78418831 73.39172075 27.05439961 75.80957031 29.39111328 C76.47472656 30.03048828 77.13988281 30.66986328 77.82519531 31.32861328 C94.91151069 49.10949432 104.75863991 74.91319263 105.80957031 99.39111328 C105.86113281 100.10138672 105.91269531 100.81166016 105.96582031 101.54345703 C107.34618932 135.18995163 88.67603353 165.93484124 68.54492188 191.21044922 C66.9247384 193.24639165 65.31392439 195.2892204 63.70800781 197.33642578 C62.99306152 198.24775269 62.99306152 198.24775269 62.26367188 199.17749023 C61.34301788 200.35253547 60.42308429 201.52814554 59.50390625 202.7043457 C57.67622717 205.03861714 55.839226 207.35598175 53.92675781 209.62158203 C49.91952971 214.43957489 46.81020954 219.63125747 43.74707031 225.07861328 C43.1475354 226.13773926 43.1475354 226.13773926 42.53588867 227.21826172 C41.70645485 228.72951683 40.90494664 230.25631183 40.12646484 231.79443359 C39.20136354 233.61856735 38.21726474 235.41339015 37.19189453 237.18310547 C31.08062286 248.97729713 31.9846778 261.28961465 32.05957031 274.26611328 C32.05812196 277.72766792 32.0481606 281.18892353 32.02825928 284.65042114 C32.01815592 286.78961956 32.01963307 288.9289157 32.034729 291.06808472 C32.02988323 300.45347906 30.51801529 308.69712223 24.80957031 316.39111328 C17.09808595 323.87495235 10.00600107 325.92397083 -0.63964844 325.77783203 C-5.93306425 325.2013214 -9.78619251 323.28244456 -14.19042969 320.39111328 C-15.58261719 319.52486328 -15.58261719 319.52486328 -17.00292969 318.64111328 C-25.38519834 310.01935123 -26.47478835 299.46793514 -26.35839844 288.01611328 C-26.36407999 285.79084859 -26.37129105 283.56558739 -26.37988281 281.34033203 C-26.38403452 277.8758583 -26.37813511 274.4125711 -26.3449707 270.94824219 C-26.22767813 256.43925496 -26.94252103 245.1128098 -34.19042969 232.39111328 C-34.99278152 230.80921819 -35.79491456 229.22721207 -36.59667969 227.64501953 C-37.28449122 226.40887378 -37.98204808 225.17808726 -38.69042969 223.95361328 C-39.07150879 223.2873291 -39.45258789 222.62104492 -39.84521484 221.93457031 C-42.88699368 216.71372075 -46.32438963 212.03349809 -50.19042969 207.39111328 C-51.92409509 205.18613344 -53.65285851 202.97778187 -55.37792969 200.76611328 C-58.3267402 196.99887205 -61.29523121 193.25063599 -64.31933594 189.54345703 C-84.13110644 165.22578269 -99.89551682 136.21731831 -99.62792969 104.14111328 C-99.62108154 102.87203125 -99.6142334 101.60294922 -99.60717773 100.29541016 C-99.43975406 90.46820488 -98.29583294 81.69714138 -95.19042969 72.39111328 C-94.82820312 71.27478516 -94.46597656 70.15845703 -94.09277344 69.00830078 C-87.93659724 51.68753386 -78.24538924 36.73491504 -64.90527344 24.09814453 C-63.1066547 22.48889071 -63.1066547 22.48889071 -62.19042969 20.39111328 C-60.47558594 19.31298828 -60.47558594 19.31298828 -58.25292969 18.14111328 C-54.90790069 16.34480637 -51.6619843 14.46247139 -48.44042969 12.45361328 C-32.51499203 2.88848973 -18.3070449 -0.12486442 0 0 Z M-53.19042969 38.39111328 C-53.90070313 38.94412109 -54.61097656 39.49712891 -55.34277344 40.06689453 C-69.54059922 51.39704065 -78.98975593 71.6551748 -81.19042969 89.39111328 C-84.19226592 116.95735837 -77.74949125 142.87976135 -60.75146484 165.28808594 C-58.31950903 168.26440162 -55.76760481 171.1230243 -53.19433594 173.97705078 C-46.76330556 181.15020263 -41.39532092 189.2432231 -35.87011719 197.11767578 C-35.31904297 197.90231201 -34.76796875 198.68694824 -34.20019531 199.49536133 C-33.12461089 201.03051072 -32.05288222 202.56837007 -30.98535156 204.10913086 C-29.74462683 205.88696317 -28.47090861 207.64169643 -27.19042969 209.39111328 C-26.86042969 209.39111328 -26.53042969 209.39111328 -26.19042969 209.39111328 C-26.19042969 195.20111328 -26.19042969 181.01111328 -26.19042969 166.39111328 C-29.49042969 164.74111328 -32.79042969 163.09111328 -36.19042969 161.39111328 C-38.52306478 159.74500625 -40.62186683 158.18652447 -42.75292969 156.32861328 C-43.30029785 155.85383545 -43.84766602 155.37905762 -44.41162109 154.88989258 C-59.12379894 141.71966828 -67.00681045 123.70014032 -68.15527344 104.17626953 C-68.3501267 83.19706802 -60.3732243 65.41327367 -46.20605469 50.27001953 C-32.57519493 37.12597619 -13.24161837 30.96616241 5.43457031 31.17626953 C19.15427479 32.04963035 31.33998938 36.49255321 43.06738281 43.47314453 C44.77626558 44.54649833 44.77626558 44.54649833 46.80957031 44.39111328 C46.80957031 45.05111328 46.80957031 45.71111328 46.80957031 46.39111328 C48.33297546 47.85293487 48.33297546 47.85293487 50.30957031 49.39111328 C64.41452572 61.53082799 72.22454932 78.74933759 73.62207031 97.20361328 C74.69724684 117.25624632 67.90762051 134.66286459 55.12207031 150.01611328 C48.39646716 157.29127934 40.88712132 162.50073428 31.80957031 166.39111328 C31.80957031 180.58111328 31.80957031 194.77111328 31.80957031 209.39111328 C35.68176363 205.51891996 38.46011944 202.10705563 41.30957031 197.57861328 C45.04592685 191.8061362 49.06861558 186.39009355 53.43457031 181.07861328 C54.27145386 180.05876343 54.27145386 180.05876343 55.12524414 179.01831055 C57.40959883 176.2503693 59.71139565 173.50426085 62.06347656 170.79345703 C79.34705857 150.43723822 89.59662283 123.56778187 87.62304688 96.86767578 C85.22280339 73.4992675 76.38997964 52.34716897 57.83740234 37.22827148 C23.6101281 10.0344342 -19.78503191 9.57577016 -53.19042969 38.39111328 Z M1.80957031 103.39111328 C-8.72133972 119.47956828 -8.40646336 135.51280791 -8.10297513 154.00117469 C-8.04598159 158.07020649 -8.04137 162.13932507 -8.03074646 166.20869446 C-8.00298424 173.88326694 -7.92942339 181.55665931 -7.83860105 189.23071653 C-7.73733746 197.98052043 -7.68835452 206.7303864 -7.64334214 215.48063219 C-7.5497483 233.45147563 -7.39001375 251.42115543 -7.19042969 269.39111328 C-0.59042969 269.39111328 6.00957031 269.39111328 12.80957031 269.39111328 C13.01879619 250.55303478 13.17896961 231.71528942 13.27587986 212.8762846 C13.32209312 204.12699775 13.38498335 195.37845046 13.48852539 186.62963867 C13.57883382 178.99529992 13.63643512 171.36149724 13.65636677 163.72663909 C13.66800036 159.69167828 13.69491472 155.65824967 13.76114082 151.62378502 C14.0413424 133.89427105 13.87938262 118.77513247 3.80957031 103.39111328 C3.14957031 103.39111328 2.48957031 103.39111328 1.80957031 103.39111328 Z M-7.19042969 287.39111328 C-7.27292969 289.59798828 -7.35542969 291.80486328 -7.44042969 294.07861328 C-7.48683594 295.31998047 -7.53324219 296.56134766 -7.58105469 297.84033203 C-7.12775986 301.96078198 -6.08791648 303.4989922 -3.19042969 306.39111328 C0.01130285 307.99197955 3.3353409 307.89028417 6.80957031 307.39111328 C9.61960492 305.59747417 11.31897499 304.37230393 12.80957031 301.39111328 C12.88073413 299.01708827 12.89366116 296.64110652 12.87207031 294.26611328 C12.85144531 291.99736328 12.83082031 289.72861328 12.80957031 287.39111328 C6.20957031 287.39111328 -0.39042969 287.39111328 -7.19042969 287.39111328 Z " fill="#080808" transform="translate(247.1904296875,-0.39111328125)"/>
<path d="M0 0 C2.5173555 2.18052624 3.89414882 3.83229301 4.20092773 7.21655273 C4.16752168 8.94510631 4.11493146 10.67336189 4.04638672 12.40087891 C3.56075289 20.50214718 3.56075289 20.50214718 6.25732422 27.90576172 C9.70010146 31.36553509 13.77274957 33.62549913 18 36 C20.20404142 37.71121228 20.87485196 38.38778932 21.43359375 41.12109375 C21.43488281 41.88550781 21.43617187 42.64992187 21.4375 43.4375 C21.45683594 44.19933594 21.47617188 44.96117187 21.49609375 45.74609375 C20.78062703 48.99667875 19.66534796 49.99788015 17 52 C14.18638913 53.16273623 11.31363728 53.96603469 8.375 54.75 C7.59898438 54.97042969 6.82296875 55.19085938 6.0234375 55.41796875 C0.36349961 57 0.36349961 57 -2 57 C-2.17015625 57.60585937 -2.3403125 58.21171875 -2.515625 58.8359375 C-3.30640318 61.57001099 -4.14541007 64.28520355 -5 67 C-5.2784375 67.91910156 -5.556875 68.83820313 -5.84375 69.78515625 C-8.39880423 77.26309513 -8.39880423 77.26309513 -12.375 79.3125 C-16.88053672 80.16699834 -18.1578352 79.38342784 -22 77 C-24.23046875 74.44140625 -24.23046875 74.44140625 -26.1875 71.5625 C-26.84105469 70.61503906 -27.49460937 69.66757813 -28.16796875 68.69140625 C-29.24960154 67.10239774 -30.30955151 65.49759526 -31.31787109 63.86108398 C-32.84379238 61.81029992 -32.84379238 61.81029992 -35.20483398 61.51757812 C-36.46275757 61.5243457 -36.46275757 61.5243457 -37.74609375 61.53125 C-38.66583984 61.51707031 -39.58558594 61.50289062 -40.53320312 61.48828125 C-42.46549486 61.49607799 -44.39778652 61.50389042 -46.33007812 61.51171875 C-53.40155594 61.40285065 -53.40155594 61.40285065 -56.60546875 59.24609375 C-58.64687266 55.95811826 -58.90288825 53.7442648 -58.8125 49.9140625 C-57.72720361 46.02160526 -55.45211419 43.44566801 -52.875 40.4375 C-49.33159903 36.46001532 -49.33159903 36.46001532 -47.67578125 31.5234375 C-48.21835501 29.17918752 -49.00005997 27.18736882 -50 25 C-53.66757001 14.25925926 -53.66757001 14.25925926 -52 9 C-50 6 -50 6 -47 5 C-40.27737541 4.53832578 -35.4490453 6.52330666 -29.3046875 9.00390625 C-25.90482579 10.02868726 -24.30953124 10.16599143 -21 9 C-19.64567325 7.68799596 -18.31266518 6.35368596 -17 5 C-14.25 3.75 -14.25 3.75 -12 3 C-12 2.34 -12 1.68 -12 1 C-7.67943294 -1.22574667 -4.68101178 -1.27663958 0 0 Z " fill="#070707" transform="translate(58,105)"/>
<path d="M0 0 C3.15277604 1.76446034 5.94965946 3.91023649 8.45703125 6.51171875 C10.03534076 8.19536715 10.03534076 8.19536715 13 10 C17.65268783 9.93923729 21.86019037 8.0776178 26.125 6.375 C30.88833558 4.49248414 35.11804854 4.37268285 40 6 C42.04913769 8.75573689 43.07783409 10.82250987 42.84765625 14.3046875 C41.89146273 19.37804487 40.35930299 24.18605582 38.48828125 28.9921875 C37.87325352 31.52118154 38.00013976 32.58592302 39 35 C40.47968182 36.90764272 42.00642651 38.77914131 43.5625 40.625 C47.26213564 45.28130185 48.97776852 48.82736629 48.70703125 54.84375 C47.66926147 58.00866114 46.80965787 59.13113255 44 61 C40.57993137 61.36146754 37.18283531 61.16504768 33.75 61.0625 C26.3763785 61.0167377 26.3763785 61.0167377 20.015625 64.2890625 C18.0527443 67.11165451 16.4927463 69.90696085 15 73 C12.90351124 76.06500751 11.04299007 78.5453633 7.5625 80.0625 C3.92287998 79.97372878 2.05251347 78.99978767 -1 77 C-2.53629732 74.46956377 -3.41469619 71.81095122 -4.3125 69 C-4.56322266 68.27554688 -4.81394531 67.55109375 -5.07226562 66.8046875 C-5.73563652 64.87682143 -6.36946205 62.93885286 -7 61 C-7.33 60.01 -7.66 59.02 -8 58 C-9.84057258 57.0914067 -9.84057258 57.0914067 -12.11328125 56.53515625 C-12.94923828 56.29216797 -13.78519531 56.04917969 -14.64648438 55.79882812 C-16.41193764 55.31122675 -18.17756054 54.82423908 -19.94335938 54.33789062 C-28.27172615 51.91544165 -28.27172615 51.91544165 -31 48 C-32.07903286 44.82847799 -31.95435881 42.20052928 -31 39 C-27.93781903 35.20840064 -24.1151775 32.23434798 -19.91113281 29.78100586 C-15.57232028 27.12437099 -15.57232028 27.12437099 -13.42382812 22.7253418 C-13.35613294 20.08856307 -13.49650488 17.56271081 -13.75 14.9375 C-14.46890011 5.79814953 -14.46890011 5.79814953 -12.203125 1.94140625 C-8.15471436 -1.62607618 -5.05734536 -1.18004725 0 0 Z " fill="#070707" transform="translate(452,105)"/>
<path d="M0 0 C6.27592737 6.16385724 8.07065326 13.43734211 8.84375 21.94140625 C8.29845116 28.15781304 6.4461973 33.99085375 3.53125 39.50390625 C2.87125 39.50390625 2.21125 39.50390625 1.53125 39.50390625 C1.20125 40.49390625 0.87125 41.48390625 0.53125 42.50390625 C-5.30545411 47.92255441 -12.54402671 50.37789475 -20.46875 50.50390625 C-26.76254619 49.89011498 -31.43740139 48.4821819 -36.46875 44.50390625 C-37.7371875 43.63765625 -37.7371875 43.63765625 -39.03125 42.75390625 C-43.9100017 38.25044314 -47.25376156 32.67234241 -47.70703125 25.9921875 C-48.08894512 11.64977328 -48.08894512 11.64977328 -43.46875 5.50390625 C-43.04464844 4.88128906 -42.62054688 4.25867188 -42.18359375 3.6171875 C-37.91152362 -2.05907281 -32.58539877 -4.29122094 -25.90625 -6.24609375 C-16.55155018 -7.20555014 -7.58536454 -5.99315358 0 0 Z M-29.46875 15.50390625 C-31.06564041 18.69768707 -30.84223957 22.0291194 -30.46875 25.50390625 C-29.21886855 28.3786336 -28.21406416 29.94492063 -25.71875 31.81640625 C-21.97655047 32.95985611 -18.02004622 33.27955436 -14.46875 31.50390625 C-14.46875 30.84390625 -14.46875 30.18390625 -14.46875 29.50390625 C-13.47875 29.50390625 -12.48875 29.50390625 -11.46875 29.50390625 C-8.7896927 25.4853203 -8.77264306 22.22748904 -9.46875 17.50390625 C-11.26268668 14.63360756 -12.45138276 13.01258987 -15.46875 11.50390625 C-21.34653151 10.79949629 -25.21394929 10.9831805 -29.46875 15.50390625 Z " fill="#070707" transform="translate(410.46875,87.49609375)"/>
<path d="M0 0 C6.80950769 5.44760615 10.53980892 12.48220751 11.6953125 21.09375 C12.09700889 30.00638876 9.37161289 36.85018537 3.6328125 43.6171875 C-2.6295356 50.00579262 -9.42469239 52.1115251 -18.3046875 52.59375 C-26.25180828 52.19575203 -33.67804071 48.30265064 -39.19921875 42.65625 C-44.85529566 35.1698611 -46.03478412 25.9925936 -44.8046875 16.84375 C-43.14149943 9.62256635 -39.61379371 3.83173904 -33.4296875 -0.34375 C-23.11442034 -6.03087448 -10.18807898 -6.21645497 0 0 Z M-24.3046875 15.59375 C-27.26691024 18.17375045 -27.29978655 19.54229002 -27.6796875 23.53125 C-27.52650178 27.27037422 -26.72948007 29.64935902 -24.3046875 32.59375 C-20.88292061 35.16007517 -17.45828329 34.95810051 -13.3046875 34.59375 C-9.7659881 32.94235695 -8.49398597 31.87769771 -6.3046875 28.59375 C-5.59399402 24.18083929 -5.75934397 20.61899583 -7.8671875 16.65625 C-13.51572596 11.87671746 -18.0296805 11.97355365 -24.3046875 15.59375 Z " fill="#070707" transform="translate(126.3046875,85.40625)"/>
<path d="M0 0 C0.86761963 -0.01111816 1.73523926 -0.02223633 2.62915039 -0.03369141 C9.16095673 0.11328837 12.9694736 1.73337486 17.640625 6.484375 C23.15511788 13.81683257 24.45366595 19.83025022 23.34375 28.94921875 C21.99882193 35.72330499 18.95256411 40.02838062 13.69140625 44.3984375 C7.00022718 48.76648371 -0.46375435 48.54110889 -8.1875 47.625 C-12.78399801 45.85976136 -16.94571707 43.79331446 -19.44921875 39.421875 C-19.69285156 38.82890625 -19.93648438 38.2359375 -20.1875 37.625 C-20.8475 37.625 -21.5075 37.625 -22.1875 37.625 C-25.38096626 28.13481212 -26.20955175 20.71789105 -22.1875 11.375 C-16.81368493 1.88475278 -10.44619891 0.11501094 0 0 Z " fill="#050505" transform="translate(395.1875,-0.625)"/>
<path d="M0 0 C5.81525246 3.47340798 8.838435 8.68101646 10.93359375 15.00390625 C12.69492682 22.09327186 11.98803668 28.3710831 8.93359375 35.00390625 C5.6050961 40.4101307 1.12895696 44.37857948 -5.06640625 46.00390625 C-14.21764757 47.07695003 -21.66866572 46.77736027 -29.06640625 41.00390625 C-30.48953125 39.95203125 -30.48953125 39.95203125 -31.94140625 38.87890625 C-36.64492631 32.51532028 -37.72235691 25.00455325 -36.57421875 17.28515625 C-35.19002028 11.0669108 -32.49894733 6.53952968 -28.06640625 2.00390625 C-20.29608573 -2.91416671 -8.62299843 -2.8011014 0 0 Z " fill="#050505" transform="translate(118.06640625,0.99609375)"/>
<path d="M0 0 C4.20117025 2.68159803 6.60422935 5.63470011 9 10 C9.62012925 13.2832499 9.66711481 16.47768796 9.625 19.8125 C9.61243164 21.15163452 9.61243164 21.15163452 9.59960938 22.51782227 C9.39784547 28.36843887 8.76275669 32.7770141 4.85546875 37.37109375 C-2.94852083 44.22217513 -9.73494972 45.66690136 -20 45 C-26.59831572 43.97359533 -30.07879112 40.28713858 -34.3359375 35.3515625 C-38.08168659 30.05827388 -39.09256529 24.3962613 -39 18 C-38.01569813 13.01429703 -36.35087545 8.49643427 -34 4 C-33.34 4 -32.68 4 -32 4 C-32 3.34 -32 2.68 -32 2 C-30.68 1.67 -29.36 1.34 -28 1 C-28 0.34 -28 -0.32 -28 -1 C-17.39434595 -4.58500982 -10.32398136 -4.64179007 0 0 Z M-19.9375 15.125 C-21.52990283 17.93512264 -21.45319325 19.82764724 -21 23 C-19.58333333 25.58333333 -19.58333333 25.58333333 -17 27 C-11.94307101 26.85718492 -11.94307101 26.85718492 -8 24 C-7.55130827 19.3577566 -7.55130827 19.3577566 -9.0625 15.0625 C-12.59875482 13.12326349 -16.44249262 13.09564088 -19.9375 15.125 Z " fill="#0A0A0A" transform="translate(491,38)"/>
<path d="M0 0 C5.49888798 5.1926854 7.83717615 11.24147428 8.2734375 18.73828125 C8.00135151 26.88849345 4.99329785 32.65507894 -0.6484375 38.4609375 C-6.20317442 43.21354635 -11.97552925 43.82546726 -19.13671875 43.59765625 C-26.0045477 42.86575623 -30.9082714 40.2167286 -35.8125 35.3125 C-39.71336624 29.70322518 -40.44063665 25.57170833 -40.3125 18.8125 C-40.32796875 17.99652344 -40.3434375 17.18054688 -40.359375 16.33984375 C-40.32207856 10.53092273 -39.06849025 7.1189618 -35.8125 2.3125 C-35.1525 2.3125 -34.4925 2.3125 -33.8125 2.3125 C-33.4825 1.3225 -33.1525 0.3325 -32.8125 -0.6875 C-30.82526732 -1.39131157 -28.82472047 -2.0586811 -26.8125 -2.6875 C-26.4825 -3.3475 -26.1525 -4.0075 -25.8125 -4.6875 C-16.54956343 -6.89296109 -7.59682237 -5.97009381 0 0 Z M-21.75 13.375 C-23.4265629 16.43226176 -23.17778977 18.9031288 -22.8125 22.3125 C-21.83201062 24.37652685 -21.83201062 24.37652685 -19.8125 25.3125 C-16.52011528 25.73280443 -14.47292658 25.607954 -11.4375 24.25 C-9.48700091 22.28027901 -9.48700091 22.28027901 -9.375 18.8125 C-9.57551161 15.46251347 -9.57551161 15.46251347 -10.875 13.375 C-14.40380402 11.43984941 -18.22119598 11.43984941 -21.75 13.375 Z " fill="#0A0A0A" transform="translate(39.8125,39.6875)"/>
<path d="M0 0 C0.66 0.33 1.32 0.66 2 1 C1.67 1.99 1.34 2.98 1 4 C0.34 4 -0.32 4 -1 4 C-1.66 4.66 -2.32 5.32 -3 6 C-4.13389029 7.05465458 -5.28092392 8.0952742 -6.4375 9.125 C-7.03433594 9.66382813 -7.63117188 10.20265625 -8.24609375 10.7578125 C-10 12 -10 12 -13 12 C-11.58653438 10.55935235 -10.16908789 9.12260985 -8.75 7.6875 C-7.96109375 6.88699219 -7.1721875 6.08648437 -6.359375 5.26171875 C-4.32605933 3.31256349 -2.29398922 1.62578594 0 0 Z " fill="#373737" transform="translate(208,43)"/>
<path d="M0 0 C0.33 1.32 0.66 2.64 1 4 C0.34 4 -0.32 4 -1 4 C-1 4.66 -1 5.32 -1 6 C-2.65 6.66 -4.3 7.32 -6 8 C-4.02 5.36 -2.04 2.72 0 0 Z " fill="#4A4A4A" transform="translate(372,87)"/>
<path d="" fill="#000000" transform="translate(0,0)"/>
<path d="" fill="#000000" transform="translate(0,0)"/>
<path d="" fill="#000000" transform="translate(0,0)"/>
<path d="" fill="#000000" transform="translate(0,0)"/>
<path d="" fill="#000000" transform="translate(0,0)"/>
<path d="" fill="#000000" transform="translate(0,0)"/>
<path d="" fill="#000000" transform="translate(0,0)"/>
</svg>
